<?xml version='1.0' encoding='UTF-8' standalone='no'?>
<svg width="576pt" height="432pt" viewBox="0 0 576 432" xmlns="http://www.w3.org/2000/svg" xmlns:xlink="http://www.w3.org/1999/xlink">
 <title>gl2ps_renderer figure</title>
 <desc>
Creator: GL2PS 1.4.0, (C) 1999-2017 C. Geuzaine
For: Octave
CreationDate: Sun Feb  3 09:51:49 2019
</desc>
 <defs/>
 <polygon points="0,0 576,0 576,432 0,432" fill="#ffffff"/>
 <g>
  <polygon points="0,432 576,432 576,0 0,0" shape-rendering="crispEdges" fill="#ffffff"/>
  <clipPath id="cp00576432">
   <polygon points="0,432 576,432 576,0 0,0"/>
  </clipPath>
  <g clip-path="url(#cp00576432)">
   <polygon points="74.8799,170.511 521.28,170.511 521.28,32.3999 74.8799,32.3999" shape-rendering="crispEdges" fill="#ffffff"/>
   <polyline points="74.8799,170.511 74.8799,32.3999" stroke-width="0.5" stroke="#262626" stroke-dasharray="16,0" stroke-linejoin="miter" fill="none" stroke-opacity="0.15" stroke-linecap="butt"/>
   <polyline points="164.16,170.511 164.16,32.3999" stroke-width="0.5" stroke="#262626" stroke-dasharray="16,0" stroke-linejoin="miter" fill="none" stroke-opacity="0.15" stroke-linecap="butt"/>
   <polyline points="253.44,170.511 253.44,32.3999" stroke-width="0.5" stroke="#262626" stroke-dasharray="16,0" stroke-linejoin="miter" fill="none" stroke-opacity="0.15" stroke-linecap="butt"/>
   <polyline points="342.72,170.511 342.72,32.3999" stroke-width="0.5" stroke="#262626" stroke-dasharray="16,0" stroke-linejoin="miter" fill="none" stroke-opacity="0.15" stroke-linecap="butt"/>
   <polyline points="432,170.511 432,32.3999" stroke-width="0.5" stroke="#262626" stroke-dasharray="16,0" stroke-linejoin="miter" fill="none" stroke-opacity="0.15" stroke-linecap="butt"/>
   <polyline points="521.28,170.511 521.28,32.3999" stroke-width="0.5" stroke="#262626" stroke-dasharray="16,0" stroke-linejoin="miter" fill="none" stroke-opacity="0.15" stroke-linecap="butt"/>
   <polyline points="74.8799,170.511 74.8799,166.044" stroke-width="0.5" stroke="#262626" stroke-linejoin="miter" fill="none" stroke-linecap="butt"/>
   <polyline points="74.8799,32.3999 74.8799,36.8677" stroke-width="0.5" stroke="#262626" stroke-linejoin="miter" fill="none" stroke-linecap="butt"/>
   <polyline points="164.16,170.511 164.16,166.044" stroke-width="0.5" stroke="#262626" stroke-linejoin="miter" fill="none" stroke-linecap="butt"/>
   <polyline points="164.16,32.3999 164.16,36.8677" stroke-width="0.5" stroke="#262626" stroke-linejoin="miter" fill="none" stroke-linecap="butt"/>
   <polyline points="253.44,170.511 253.44,166.044" stroke-width="0.5" stroke="#262626" stroke-linejoin="miter" fill="none" stroke-linecap="butt"/>
   <polyline points="253.44,32.3999 253.44,36.8677" stroke-width="0.5" stroke="#262626" stroke-linejoin="miter" fill="none" stroke-linecap="butt"/>
   <polyline points="342.72,170.511 342.72,166.044" stroke-width="0.5" stroke="#262626" stroke-linejoin="miter" fill="none" stroke-linecap="butt"/>
   <polyline points="342.72,32.3999 342.72,36.8677" stroke-width="0.5" stroke="#262626" stroke-linejoin="miter" fill="none" stroke-linecap="butt"/>
   <polyline points="432,170.511 432,166.044" stroke-width="0.5" stroke="#262626" stroke-linejoin="miter" fill="none" stroke-linecap="butt"/>
   <polyline points="432,32.3999 432,36.8677" stroke-width="0.5" stroke="#262626" stroke-linejoin="miter" fill="none" stroke-linecap="butt"/>
   <polyline points="521.28,170.511 521.28,166.044" stroke-width="0.5" stroke="#262626" stroke-linejoin="miter" fill="none" stroke-linecap="butt"/>
   <polyline points="521.28,32.3999 521.28,36.8677" stroke-width="0.5" stroke="#262626" stroke-linejoin="miter" fill="none" stroke-linecap="butt"/>
   <text font-family="FreeSans" transform="translate(71.88,186.017) rotate(-0,3,-8)" font-weight="normal" font-style="normal" xml:space="preserve" font-size="10">
    <tspan x="0 " y="-0" fill="rgb(38,38,38)">0</tspan>
   </text>
   <text font-family="FreeSans" transform="translate(156.66,186.017) rotate(-0,7.5,-8)" font-weight="normal" font-style="normal" xml:space="preserve" font-size="10">
    <tspan x="0 6 9 " y="-0" fill="rgb(38,38,38)">0.2</tspan>
   </text>
   <text font-family="FreeSans" transform="translate(245.94,186.017) rotate(-0,7.5,-8)" font-weight="normal" font-style="normal" xml:space="preserve" font-size="10">
    <tspan x="0 6 9 " y="-0" fill="rgb(38,38,38)">0.4</tspan>
   </text>
   <text font-family="FreeSans" transform="translate(335.22,186.017) rotate(-0,7.5,-8)" font-weight="normal" font-style="normal" xml:space="preserve" font-size="10">
    <tspan x="0 6 9 " y="-0" fill="rgb(38,38,38)">0.6</tspan>
   </text>
   <text font-family="FreeSans" transform="translate(424.5,186.017) rotate(-0,7.5,-8)" font-weight="normal" font-style="normal" xml:space="preserve" font-size="10">
    <tspan x="0 6 9 " y="-0" fill="rgb(38,38,38)">0.8</tspan>
   </text>
   <text font-family="FreeSans" transform="translate(518.28,186.017) rotate(-0,3,-8)" font-weight="normal" font-style="normal" xml:space="preserve" font-size="10">
    <tspan x="0 " y="-0" fill="rgb(38,38,38)">1</tspan>
   </text>
   <polyline points="74.8799,170.511 521.28,170.511" stroke-width="0.5" stroke="#262626" stroke-dasharray="16,0" stroke-linejoin="miter" fill="none" stroke-opacity="0.15" stroke-linecap="butt"/>
   <polyline points="74.8799,147.493 521.28,147.493" stroke-width="0.5" stroke="#262626" stroke-dasharray="16,0" stroke-linejoin="miter" fill="none" stroke-opacity="0.15" stroke-linecap="butt"/>
   <polyline points="74.8799,124.474 521.28,124.474" stroke-width="0.5" stroke="#262626" stroke-dasharray="16,0" stroke-linejoin="miter" fill="none" stroke-opacity="0.15" stroke-linecap="butt"/>
   <polyline points="74.8799,101.456 521.28,101.456" stroke-width="0.5" stroke="#262626" stroke-dasharray="16,0" stroke-linejoin="miter" fill="none" stroke-opacity="0.15" stroke-linecap="butt"/>
   <polyline points="74.8799,78.437 521.28,78.437" stroke-width="0.5" stroke="#262626" stroke-dasharray="16,0" stroke-linejoin="miter" fill="none" stroke-opacity="0.15" stroke-linecap="butt"/>
   <polyline points="74.8799,55.4185 521.28,55.4185" stroke-width="0.5" stroke="#262626" stroke-dasharray="16,0" stroke-linejoin="miter" fill="none" stroke-opacity="0.15" stroke-linecap="butt"/>
   <polyline points="74.8799,32.3999 521.28,32.3999" stroke-width="0.5" stroke="#262626" stroke-dasharray="16,0" stroke-linejoin="miter" fill="none" stroke-opacity="0.15" stroke-linecap="butt"/>
   <polyline points="74.8799,170.511 79.3481,170.511" stroke-width="0.5" stroke="#262626" stroke-linejoin="miter" fill="none" stroke-linecap="butt"/>
   <polyline points="521.28,170.511 516.812,170.511" stroke-width="0.5" stroke="#262626" stroke-linejoin="miter" fill="none" stroke-linecap="butt"/>
   <polyline points="74.8799,147.493 79.3481,147.493" stroke-width="0.5" stroke="#262626" stroke-linejoin="miter" fill="none" stroke-linecap="butt"/>
   <polyline points="521.28,147.493 516.812,147.493" stroke-width="0.5" stroke="#262626" stroke-linejoin="miter" fill="none" stroke-linecap="butt"/>
   <polyline points="74.8799,124.474 79.3481,124.474" stroke-width="0.5" stroke="#262626" stroke-linejoin="miter" fill="none" stroke-linecap="butt"/>
   <polyline points="521.28,124.474 516.812,124.474" stroke-width="0.5" stroke="#262626" stroke-linejoin="miter" fill="none" stroke-linecap="butt"/>
   <polyline points="74.8799,101.456 79.3481,101.456" stroke-width="0.5" stroke="#262626" stroke-linejoin="miter" fill="none" stroke-linecap="butt"/>
   <polyline points="521.28,101.456 516.812,101.456" stroke-width="0.5" stroke="#262626" stroke-linejoin="miter" fill="none" stroke-linecap="butt"/>
   <polyline points="74.8799,78.437 79.3481,78.437" stroke-width="0.5" stroke="#262626" stroke-linejoin="miter" fill="none" stroke-linecap="butt"/>
   <polyline points="521.28,78.437 516.812,78.437" stroke-width="0.5" stroke="#262626" stroke-linejoin="miter" fill="none" stroke-linecap="butt"/>
   <polyline points="74.8799,55.4185 79.3481,55.4185" stroke-width="0.5" stroke="#262626" stroke-linejoin="miter" fill="none" stroke-linecap="butt"/>
   <polyline points="521.28,55.4185 516.812,55.4185" stroke-width="0.5" stroke="#262626" stroke-linejoin="miter" fill="none" stroke-linecap="butt"/>
   <polyline points="74.8799,32.3999 79.3481,32.3999" stroke-width="0.5" stroke="#262626" stroke-linejoin="miter" fill="none" stroke-linecap="butt"/>
   <polyline points="521.28,32.3999 516.812,32.3999" stroke-width="0.5" stroke="#262626" stroke-linejoin="miter" fill="none" stroke-linecap="butt"/>
   <text font-family="FreeSans" transform="translate(48.8755,174.511) rotate(-0,21,-4)" font-weight="normal" font-style="normal" xml:space="preserve" font-size="10">
    <tspan x="0 3 9 15 " y="-0" fill="rgb(38,38,38)">-100</tspan>
   </text>
   <text font-family="FreeSans" transform="translate(54.8755,151.493) rotate(-0,15,-4)" font-weight="normal" font-style="normal" xml:space="preserve" font-size="10">
    <tspan x="0 3 9 " y="-0" fill="rgb(38,38,38)">-80</tspan>
   </text>
   <text font-family="FreeSans" transform="translate(54.8755,128.474) rotate(-0,15,-4)" font-weight="normal" font-style="normal" xml:space="preserve" font-size="10">
    <tspan x="0 3 9 " y="-0" fill="rgb(38,38,38)">-60</tspan>
   </text>
   <text font-family="FreeSans" transform="translate(54.8755,105.456) rotate(-0,15,-4)" font-weight="normal" font-style="normal" xml:space="preserve" font-size="10">
    <tspan x="0 3 9 " y="-0" fill="rgb(38,38,38)">-40</tspan>
   </text>
   <text font-family="FreeSans" transform="translate(54.8755,82.4371) rotate(-0,15,-4)" font-weight="normal" font-style="normal" xml:space="preserve" font-size="10">
    <tspan x="0 3 9 " y="-0" fill="rgb(38,38,38)">-20</tspan>
   </text>
   <text font-family="FreeSans" transform="translate(63.8755,59.4186) rotate(-0,6,-4)" font-weight="normal" font-style="normal" xml:space="preserve" font-size="10">
    <tspan x="0 " y="-0" fill="rgb(38,38,38)">0</tspan>
   </text>
   <text font-family="FreeSans" transform="translate(57.8755,36.4) rotate(-0,12,-4)" font-weight="normal" font-style="normal" xml:space="preserve" font-size="10">
    <tspan x="0 6 " y="-0" fill="rgb(38,38,38)">20</tspan>
   </text>
   <polyline points="74.8799,170.511 521.28,170.511" stroke-width="0.5" stroke="#262626" stroke-dasharray="16,0" stroke-linejoin="miter" fill="none" stroke-linecap="square"/>
   <polyline points="74.8799,32.3999 521.28,32.3999" stroke-width="0.5" stroke="#262626" stroke-dasharray="16,0" stroke-linejoin="miter" fill="none" stroke-linecap="square"/>
   <polyline points="74.8799,170.511 74.8799,32.3999" stroke-width="0.5" stroke="#262626" stroke-dasharray="16,0" stroke-linejoin="miter" fill="none" stroke-linecap="square"/>
   <polyline points="521.28,170.511 521.28,32.3999" stroke-width="0.5" stroke="#262626" stroke-dasharray="16,0" stroke-linejoin="miter" fill="none" stroke-linecap="square"/>
   <text font-family="FreeSans" transform="translate(6.87552,101.456) rotate(-90,37,0)" font-weight="normal" font-style="normal" xml:space="preserve" font-size="11">
    <tspan x="0 9 15 21 27 29 32 38 44 50 53 57 63 70 " y="-3" fill="rgb(38,38,38)">Magnitude (dB)</tspan>
   </text>
   <text font-family="FreeSans" transform="translate(203.58,203.017) rotate(-0,94.5,-12)" font-weight="normal" font-style="normal" xml:space="preserve" font-size="11">
    <tspan x="0 8 14 18 27 33 35 37 42 48 54 57 64 68 74 80 86 92 98 104 109 112 " y="-3" fill="rgb(38,38,38)">Normalized Frequency (</tspan>
    <tspan x="116 " y="-3" fill="rgb(38,38,38)">×</tspan>
    <tspan x="122 " y="-3" fill="rgb(38,38,38)">π</tspan>
    <tspan x="129 132 136 142 148 151 156 162 171 177 179 185 " y="-3" fill="rgb(38,38,38)"> rad/sample)</tspan>
   </text>
   <polyline points="74.8799,56.1084 75.752,56.1157 76.6235,56.1357 77.4956,56.1606 78.3677,56.1812 79.2393,56.1836 80.1113,56.1567 80.9829,56.0913 81.855,55.9819 82.7271,55.8306 83.5986,55.645 84.4707,55.439 85.3423,55.229 86.2144,55.0342 87.0864,54.8721 87.958,54.7593 88.8301,54.707 89.7017,54.7227 90.5737,54.8066 91.4458,54.9551 92.3174,55.1558 93.1895,55.3916 94.061,55.6377 94.9331,55.8667 95.8052,56.0498 96.6768,56.1606 97.5488,56.1821 98.4204,56.1079 99.2925,55.9453 100.165,55.7153 101.036,55.4482 101.908,55.1787 102.78,54.9434 103.652,54.7759 104.524,54.707 105.396,54.7632 106.268,54.9683 107.139,55.3423 108.011,55.9038 108.883,56.6709 109.755,57.6626 110.627,58.8989 111.499,60.4043 112.371,62.208 113.243,64.3486 114.114,66.8765 114.986,69.8643 115.858,73.4204 116.73,77.7192 117.602,83.083 118.474,90.2324 119.346,101.664 120.217,118.24 121.089,105.851 121.961,106.24 122.833,112.723 123.705,128.947 124.577,110.392 125.449,106.142 126.321,105.355 127.192,107.11 128.064,112.35 128.936,133.927 129.808,114.89 130.68,108.291 131.552,105.768 132.424,105.414 133.295,106.987 134.167,111.218 135.04,123.103 135.911,119.481 136.783,110.251 137.655,106.646 138.527,105.354 139.399,105.765 140.271,108.011 141.143,113.262 142.014,131.862 142.886,116.694 143.758,109.468 144.63,106.397 145.502,105.343 146.374,105.873 147.246,108.165 148.118,113.388 148.989,131.338 149.861,117.082 150.733,109.709 151.605,106.533 152.477,105.353 153.349,105.704 154.221,107.7 155.092,112.245 155.964,124.939 156.836,119.637 157.708,110.711 158.58,107.023 159.452,105.496 160.324,105.509 161.196,107.06 162.067,110.767 162.939,119.69 163.811,125.099 164.683,112.363 165.555,107.796 166.427,105.76 167.299,105.331 168.17,106.363 169.042,109.218 169.915,115.564 170.786,152.424 171.658,115.12 172.53,109.048 173.402,106.306 174.274,105.347 175.146,105.833 176.018,107.923 176.889,112.557 177.761,125.566 178.633,119.625 179.505,110.817 180.377,107.121 181.249,105.541 182.121,105.458 182.993,106.842 183.864,110.21 184.736,117.932 185.608,129.894 186.48,113.466 187.352,108.341 188.224,105.997 189.096,105.3 189.967,106.018 190.839,108.387 191.711,113.56 192.583,130.382 193.455,117.811 194.327,110.167 195.199,106.815 196.071,105.428 196.942,105.491 197.814,107.024 198.686,110.61 199.558,118.976 200.43,127.089 201.302,112.95 202.174,108.122 203.045,105.913 203.917,105.305 204.79,106.101 205.661,108.562 206.533,113.914 207.405,132.417 208.277,117.383 209.149,110.031 210.021,106.772 210.893,105.437 211.764,105.539 212.636,107.108 213.508,110.745 214.38,119.268 215.252,126.603 216.124,112.877 216.996,108.107 217.868,105.919 218.739,105.321 219.611,106.119 220.483,108.574 221.355,113.9 222.227,132.105 223.099,117.496 223.971,110.093 224.842,106.812 225.714,105.456 226.586,105.533 227.458,107.066 228.33,110.635 229.202,118.917 230.074,127.494 230.946,113.092 231.817,108.215 232.689,105.97 233.561,105.324 234.433,106.066 235.305,108.439 236.177,113.581 237.049,130.002 237.92,118.059 238.792,110.321 239.665,106.923 240.536,105.491 241.408,105.497 242.28,106.941 243.152,110.358 244.024,118.149 244.896,129.727 245.768,113.539 246.639,108.424 247.511,106.062 248.383,105.324 249.255,105.971 250.127,108.21 250.999,113.069 251.871,127.315 252.743,119.024 253.614,110.687 254.486,107.098 255.358,105.546 256.23,105.445 257.102,106.766 257.974,109.978 258.846,117.162 259.717,134.015 260.589,114.193 261.461,108.721 262.333,106.191 263.205,105.33 264.077,105.853 264.949,107.925 265.821,112.448 266.692,124.674 267.564,120.417 268.436,111.179 269.308,107.33 270.18,105.623 271.052,105.391 271.924,106.561 272.795,109.539 273.667,116.083 274.54,144.548 275.411,115.056 276.283,109.1 277.155,106.359 278.027,105.347 278.899,105.724 279.771,107.608 280.643,111.773 281.514,122.274 282.386,122.353 283.258,111.796 284.13,107.617 285.002,105.725 285.874,105.339 286.746,106.342 287.618,109.068 288.489,114.986 289.361,143.254 290.233,116.155 291.105,109.563 291.977,106.566 292.849,105.379 293.721,105.594 294.592,107.274 295.464,111.075 296.336,120.127 297.208,125.125 298.08,112.556 298.952,107.966 299.824,105.854 300.696,105.296 301.567,106.115 302.439,108.578 303.311,113.893 304.183,131.886 305.055,117.582 305.927,110.135 306.799,106.826 307.67,105.438 308.542,105.471 309.415,106.933 310.286,110.362 311.158,118.167 312.03,129.697 312.902,113.538 313.774,108.421 314.646,106.051 315.518,105.298 316.389,105.921 317.261,108.116 318.133,112.868 319.005,126.383 319.877,119.467 320.749,110.852 321.621,107.175 322.493,105.564 323.364,105.406 324.236,106.652 325.108,109.738 325.98,116.556 326.852,138.575 327.724,114.683 328.596,108.944 329.467,106.292 330.339,105.339 331.211,105.766 332.083,107.708 332.955,111.97 333.827,122.886 334.699,121.819 335.571,111.649 336.442,107.56 337.314,105.713 338.186,105.361 339.058,106.395 339.93,109.161 340.802,115.166 341.674,146.395 342.545,116.023 343.417,109.528 344.29,106.565 345.161,105.4 346.033,105.63 346.905,107.326 347.777,111.148 348.649,120.267 349.521,125.007 350.393,112.559 351.264,107.99 352.136,105.888 353.008,105.335 353.88,106.158 354.752,108.622 355.624,113.936 356.496,131.909 357.368,117.636 358.239,110.186 359.111,106.874 359.983,105.484 360.855,105.513 361.727,106.97 362.599,110.39 363.471,118.164 364.342,129.897 365.214,113.607 366.086,108.473 366.958,106.092 367.83,105.33 368.702,105.94 369.574,108.118 370.446,112.833 371.317,126.127 372.189,119.642 373.061,110.931 373.933,107.223 374.805,105.592 375.677,105.415 376.549,106.638 377.42,109.686 378.292,116.4 379.165,140.435 380.036,114.84 380.908,109.019 381.78,106.329 382.652,105.345 383.524,105.742 384.396,107.644 385.268,111.829 386.139,122.402 387.011,122.277 387.883,111.788 388.755,107.62 389.627,105.728 390.499,105.336 391.371,106.325 392.243,109.023 393.114,114.865 393.986,140.972 394.858,116.336 395.73,109.646 396.602,106.604 397.474,105.384 398.346,105.561 399.217,107.188 400.089,110.888 400.961,119.568 401.833,126.194 402.705,112.828 403.577,108.098 404.449,105.911 405.321,105.291 406.192,106.04 407.064,108.398 407.936,113.48 408.808,129.306 409.68,118.319 410.552,110.435 411.424,106.98 412.295,105.499 413.167,105.448 414.04,106.81 414.911,110.071 415.783,117.371 416.655,133.08 417.527,114.096 418.399,108.688 419.271,106.18 420.143,105.325 421.014,105.843 421.886,107.897 422.758,112.368 423.63,124.281 424.502,120.741 425.374,111.309 426.246,107.403 427.118,105.656 427.989,105.383 428.861,106.498 429.733,109.381 430.605,115.667 431.477,164.167 432.349,115.523 433.221,109.322 434.092,106.473 434.964,105.381 435.836,105.677 436.708,107.45 437.58,111.402 438.452,121.007 439.324,123.932 440.196,112.282 441.067,107.864 441.939,105.838 442.811,105.342 443.683,106.22 444.555,108.76 445.427,114.237 446.299,134.041 447.17,117.214 448.042,110.022 448.915,106.799 449.786,105.462 450.658,105.536 451.53,107.042 452.402,110.54 453.274,118.555 454.146,128.712 455.018,113.391 455.889,108.375 456.761,106.048 457.633,105.324 458.505,105.97 459.377,108.192 460.249,112.995 461.121,126.826 461.993,119.305 462.864,110.81 463.736,107.164 464.608,105.568 465.48,105.417 466.352,106.667 467.224,109.755 468.096,116.575 468.967,138.566 469.839,114.692 470.711,108.95 471.583,106.292 472.455,105.33 473.327,105.744 474.199,107.664 475.071,111.883 475.942,122.596 476.814,122.077 477.686,111.721 478.558,107.582 479.43,105.703 480.302,105.32 481.174,106.314 482.045,109.016 482.917,114.859 483.79,140.927 484.661,116.341 485.533,109.649 486.405,106.608 487.277,105.387 488.149,105.562 489.021,107.186 489.893,110.877 490.764,119.521 491.636,126.327 492.508,112.871 493.38,108.128 494.252,105.935 495.124,105.31 495.996,106.055 496.868,108.409 497.739,113.479 498.611,129.221 499.483,118.37 500.355,110.465 501.227,107.003 502.099,105.517 502.971,105.46 503.842,106.816 504.714,110.068 505.586,117.34 506.458,133.331 507.33,114.142 508.202,108.716 509.074,106.199 509.946,105.336 510.817,105.847 511.689,107.891 512.561,112.342 513.433,124.155 514.305,120.848 515.177,111.351 516.049,107.426 516.92,105.669 517.792,105.386 518.665,106.491 519.536,109.357 520.408,115.601" stroke-width="0.5" stroke="#0071bc" stroke-linejoin="round" fill="none" stroke-linecap="butt"/>
  </g>
  <clipPath id="cp00576432">
   <polygon points="0,432 576,432 576,0 0,0"/>
  </clipPath>
  <g clip-path="url(#cp00576432)">
   <polygon points="74.8799,384.48 521.28,384.48 521.28,246.369 74.8799,246.369" shape-rendering="crispEdges" fill="#ffffff"/>
   <polyline points="74.8799,384.48 74.8799,246.369" stroke-width="0.5" stroke="#262626" stroke-dasharray="16,0" stroke-linejoin="miter" fill="none" stroke-opacity="0.15" stroke-linecap="butt"/>
   <polyline points="164.16,384.48 164.16,246.369" stroke-width="0.5" stroke="#262626" stroke-dasharray="16,0" stroke-linejoin="miter" fill="none" stroke-opacity="0.15" stroke-linecap="butt"/>
   <polyline points="253.44,384.48 253.44,246.369" stroke-width="0.5" stroke="#262626" stroke-dasharray="16,0" stroke-linejoin="miter" fill="none" stroke-opacity="0.15" stroke-linecap="butt"/>
   <polyline points="342.72,384.48 342.72,246.369" stroke-width="0.5" stroke="#262626" stroke-dasharray="16,0" stroke-linejoin="miter" fill="none" stroke-opacity="0.15" stroke-linecap="butt"/>
   <polyline points="432,384.48 432,246.369" stroke-width="0.5" stroke="#262626" stroke-dasharray="16,0" stroke-linejoin="miter" fill="none" stroke-opacity="0.15" stroke-linecap="butt"/>
   <polyline points="521.28,384.48 521.28,246.369" stroke-width="0.5" stroke="#262626" stroke-dasharray="16,0" stroke-linejoin="miter" fill="none" stroke-opacity="0.15" stroke-linecap="butt"/>
   <polyline points="74.8799,384.48 74.8799,380.012" stroke-width="0.5" stroke="#262626" stroke-linejoin="miter" fill="none" stroke-linecap="butt"/>
   <polyline points="74.8799,246.369 74.8799,250.836" stroke-width="0.5" stroke="#262626" stroke-linejoin="miter" fill="none" stroke-linecap="butt"/>
   <polyline points="164.16,384.48 164.16,380.012" stroke-width="0.5" stroke="#262626" stroke-linejoin="miter" fill="none" stroke-linecap="butt"/>
   <polyline points="164.16,246.369 164.16,250.836" stroke-width="0.5" stroke="#262626" stroke-linejoin="miter" fill="none" stroke-linecap="butt"/>
   <polyline points="253.44,384.48 253.44,380.012" stroke-width="0.5" stroke="#262626" stroke-linejoin="miter" fill="none" stroke-linecap="butt"/>
   <polyline points="253.44,246.369 253.44,250.836" stroke-width="0.5" stroke="#262626" stroke-linejoin="miter" fill="none" stroke-linecap="butt"/>
   <polyline points="342.72,384.48 342.72,380.012" stroke-width="0.5" stroke="#262626" stroke-linejoin="miter" fill="none" stroke-linecap="butt"/>
   <polyline points="342.72,246.369 342.72,250.836" stroke-width="0.5" stroke="#262626" stroke-linejoin="miter" fill="none" stroke-linecap="butt"/>
   <polyline points="432,384.48 432,380.012" stroke-width="0.5" stroke="#262626" stroke-linejoin="miter" fill="none" stroke-linecap="butt"/>
   <polyline points="432,246.369 432,250.836" stroke-width="0.5" stroke="#262626" stroke-linejoin="miter" fill="none" stroke-linecap="butt"/>
   <polyline points="521.28,384.48 521.28,380.012" stroke-width="0.5" stroke="#262626" stroke-linejoin="miter" fill="none" stroke-linecap="butt"/>
   <polyline points="521.28,246.369 521.28,250.836" stroke-width="0.5" stroke="#262626" stroke-linejoin="miter" fill="none" stroke-linecap="butt"/>
   <text font-family="FreeSans" transform="translate(71.88,399.986) rotate(-0,3,-8)" font-weight="normal" font-style="normal" xml:space="preserve" font-size="10">
    <tspan x="0 " y="-0" fill="rgb(38,38,38)">0</tspan>
   </text>
   <text font-family="FreeSans" transform="translate(156.66,399.986) rotate(-0,7.5,-8)" font-weight="normal" font-style="normal" xml:space="preserve" font-size="10">
    <tspan x="0 6 9 " y="-0" fill="rgb(38,38,38)">0.2</tspan>
   </text>
   <text font-family="FreeSans" transform="translate(245.94,399.986) rotate(-0,7.5,-8)" font-weight="normal" font-style="normal" xml:space="preserve" font-size="10">
    <tspan x="0 6 9 " y="-0" fill="rgb(38,38,38)">0.4</tspan>
   </text>
   <text font-family="FreeSans" transform="translate(335.22,399.986) rotate(-0,7.5,-8)" font-weight="normal" font-style="normal" xml:space="preserve" font-size="10">
    <tspan x="0 6 9 " y="-0" fill="rgb(38,38,38)">0.6</tspan>
   </text>
   <text font-family="FreeSans" transform="translate(424.5,399.986) rotate(-0,7.5,-8)" font-weight="normal" font-style="normal" xml:space="preserve" font-size="10">
    <tspan x="0 6 9 " y="-0" fill="rgb(38,38,38)">0.8</tspan>
   </text>
   <text font-family="FreeSans" transform="translate(518.28,399.986) rotate(-0,3,-8)" font-weight="normal" font-style="normal" xml:space="preserve" font-size="10">
    <tspan x="0 " y="-0" fill="rgb(38,38,38)">1</tspan>
   </text>
   <polyline points="74.8799,384.48 521.28,384.48" stroke-width="0.5" stroke="#262626" stroke-dasharray="16,0" stroke-linejoin="miter" fill="none" stroke-opacity="0.15" stroke-linecap="butt"/>
   <polyline points="74.8799,361.461 521.28,361.461" stroke-width="0.5" stroke="#262626" stroke-dasharray="16,0" stroke-linejoin="miter" fill="none" stroke-opacity="0.15" stroke-linecap="butt"/>
   <polyline points="74.8799,338.443 521.28,338.443" stroke-width="0.5" stroke="#262626" stroke-dasharray="16,0" stroke-linejoin="miter" fill="none" stroke-opacity="0.15" stroke-linecap="butt"/>
   <polyline points="74.8799,315.424 521.28,315.424" stroke-width="0.5" stroke="#262626" stroke-dasharray="16,0" stroke-linejoin="miter" fill="none" stroke-opacity="0.15" stroke-linecap="butt"/>
   <polyline points="74.8799,292.406 521.28,292.406" stroke-width="0.5" stroke="#262626" stroke-dasharray="16,0" stroke-linejoin="miter" fill="none" stroke-opacity="0.15" stroke-linecap="butt"/>
   <polyline points="74.8799,269.387 521.28,269.387" stroke-width="0.5" stroke="#262626" stroke-dasharray="16,0" stroke-linejoin="miter" fill="none" stroke-opacity="0.15" stroke-linecap="butt"/>
   <polyline points="74.8799,246.369 521.28,246.369" stroke-width="0.5" stroke="#262626" stroke-dasharray="16,0" stroke-linejoin="miter" fill="none" stroke-opacity="0.15" stroke-linecap="butt"/>
   <polyline points="74.8799,384.48 79.3481,384.48" stroke-width="0.5" stroke="#262626" stroke-linejoin="miter" fill="none" stroke-linecap="butt"/>
   <polyline points="521.28,384.48 516.812,384.48" stroke-width="0.5" stroke="#262626" stroke-linejoin="miter" fill="none" stroke-linecap="butt"/>
   <polyline points="74.8799,361.461 79.3481,361.461" stroke-width="0.5" stroke="#262626" stroke-linejoin="miter" fill="none" stroke-linecap="butt"/>
   <polyline points="521.28,361.461 516.812,361.461" stroke-width="0.5" stroke="#262626" stroke-linejoin="miter" fill="none" stroke-linecap="butt"/>
   <polyline points="74.8799,338.443 79.3481,338.443" stroke-width="0.5" stroke="#262626" stroke-linejoin="miter" fill="none" stroke-linecap="butt"/>
   <polyline points="521.28,338.443 516.812,338.443" stroke-width="0.5" stroke="#262626" stroke-linejoin="miter" fill="none" stroke-linecap="butt"/>
   <polyline points="74.8799,315.424 79.3481,315.424" stroke-width="0.5" stroke="#262626" stroke-linejoin="miter" fill="none" stroke-linecap="butt"/>
   <polyline points="521.28,315.424 516.812,315.424" stroke-width="0.5" stroke="#262626" stroke-linejoin="miter" fill="none" stroke-linecap="butt"/>
   <polyline points="74.8799,292.406 79.3481,292.406" stroke-width="0.5" stroke="#262626" stroke-linejoin="miter" fill="none" stroke-linecap="butt"/>
   <polyline points="521.28,292.406 516.812,292.406" stroke-width="0.5" stroke="#262626" stroke-linejoin="miter" fill="none" stroke-linecap="butt"/>
   <polyline points="74.8799,269.387 79.3481,269.387" stroke-width="0.5" stroke="#262626" stroke-linejoin="miter" fill="none" stroke-linecap="butt"/>
   <polyline points="521.28,269.387 516.812,269.387" stroke-width="0.5" stroke="#262626" stroke-linejoin="miter" fill="none" stroke-linecap="butt"/>
   <polyline points="74.8799,246.369 79.3481,246.369" stroke-width="0.5" stroke="#262626" stroke-linejoin="miter" fill="none" stroke-linecap="butt"/>
   <polyline points="521.28,246.369 516.812,246.369" stroke-width="0.5" stroke="#262626" stroke-linejoin="miter" fill="none" stroke-linecap="butt"/>
   <text font-family="FreeSans" transform="translate(42.8755,388.48) rotate(-0,27,-4)" font-weight="normal" font-style="normal" xml:space="preserve" font-size="10">
    <tspan x="0 3 9 15 21 " y="-0" fill="rgb(38,38,38)">-1200</tspan>
   </text>
   <text font-family="FreeSans" transform="translate(42.8755,365.461) rotate(-0,27,-4)" font-weight="normal" font-style="normal" xml:space="preserve" font-size="10">
    <tspan x="0 3 9 15 21 " y="-0" fill="rgb(38,38,38)">-1000</tspan>
   </text>
   <text font-family="FreeSans" transform="translate(48.8755,342.443) rotate(-0,21,-4)" font-weight="normal" font-style="normal" xml:space="preserve" font-size="10">
    <tspan x="0 3 9 15 " y="-0" fill="rgb(38,38,38)">-800</tspan>
   </text>
   <text font-family="FreeSans" transform="translate(48.8755,319.424) rotate(-0,21,-4)" font-weight="normal" font-style="normal" xml:space="preserve" font-size="10">
    <tspan x="0 3 9 15 " y="-0" fill="rgb(38,38,38)">-600</tspan>
   </text>
   <text font-family="FreeSans" transform="translate(48.8755,296.406) rotate(-0,21,-4)" font-weight="normal" font-style="normal" xml:space="preserve" font-size="10">
    <tspan x="0 3 9 15 " y="-0" fill="rgb(38,38,38)">-400</tspan>
   </text>
   <text font-family="FreeSans" transform="translate(48.8755,273.387) rotate(-0,21,-4)" font-weight="normal" font-style="normal" xml:space="preserve" font-size="10">
    <tspan x="0 3 9 15 " y="-0" fill="rgb(38,38,38)">-200</tspan>
   </text>
   <text font-family="FreeSans" transform="translate(63.8755,250.369) rotate(-0,6,-4)" font-weight="normal" font-style="normal" xml:space="preserve" font-size="10">
    <tspan x="0 " y="-0" fill="rgb(38,38,38)">0</tspan>
   </text>
   <polyline points="74.8799,384.48 521.28,384.48" stroke-width="0.5" stroke="#262626" stroke-dasharray="16,0" stroke-linejoin="miter" fill="none" stroke-linecap="square"/>
   <polyline points="74.8799,246.369 521.28,246.369" stroke-width="0.5" stroke="#262626" stroke-dasharray="16,0" stroke-linejoin="miter" fill="none" stroke-linecap="square"/>
   <polyline points="74.8799,384.48 74.8799,246.369" stroke-width="0.5" stroke="#262626" stroke-dasharray="16,0" stroke-linejoin="miter" fill="none" stroke-linecap="square"/>
   <polyline points="521.28,384.48 521.28,246.369" stroke-width="0.5" stroke="#262626" stroke-dasharray="16,0" stroke-linejoin="miter" fill="none" stroke-linecap="square"/>
   <text font-family="FreeSans" transform="translate(-2.12448,315.424) rotate(-90,40,0)" font-weight="normal" font-style="normal" xml:space="preserve" font-size="11">
    <tspan x="0 7 13 19 24 30 33 37 43 49 55 59 65 71 76 " y="-3" fill="rgb(38,38,38)">Phase (degrees)</tspan>
   </text>
   <text font-family="FreeSans" transform="translate(203.58,416.986) rotate(-0,94.5,-12)" font-weight="normal" font-style="normal" xml:space="preserve" font-size="11">
    <tspan x="0 8 14 18 27 33 35 37 42 48 54 57 64 68 74 80 86 92 98 104 109 112 " y="-3" fill="rgb(38,38,38)">Normalized Frequency (</tspan>
    <tspan x="116 " y="-3" fill="rgb(38,38,38)">×</tspan>
    <tspan x="122 " y="-3" fill="rgb(38,38,38)">π</tspan>
    <tspan x="129 132 136 142 148 151 156 162 171 177 179 185 " y="-3" fill="rgb(38,38,38)"> rad/sample)</tspan>
   </text>
   <polyline points="74.8799,246.369 75.752,248.776 76.6235,251.184 77.4956,253.591 78.3677,255.999 79.2393,258.406 80.1113,260.813 80.9829,263.221 81.855,265.628 82.7271,268.036 83.5986,270.444 84.4707,272.851 85.3423,275.259 86.2144,277.666 87.0864,280.074 87.958,282.481 88.8301,284.889 89.7017,287.296 90.5737,289.704 91.4458,292.111 92.3174,294.519 93.1895,296.926 94.061,299.334 94.9331,301.741 95.8052,304.149 96.6768,306.556 97.5488,308.964 98.4204,311.371 99.2925,313.779 100.165,316.187 101.036,318.594 101.908,321.001 102.78,323.409 103.652,325.816 104.524,328.224 105.396,330.631 106.268,333.039 107.139,335.446 108.011,337.854 108.883,340.261 109.755,342.669 110.627,345.077 111.499,347.484 112.371,349.892 113.243,352.299 114.114,354.707 114.986,357.114 115.858,359.521 116.73,361.929 117.602,364.336 118.474,366.744 119.346,369.151 120.217,350.842 121.089,353.25 121.961,355.657 122.833,358.065 123.705,339.756 124.577,342.163 125.449,344.571 126.321,346.978 127.192,349.386 128.064,351.793 128.936,354.201 129.808,335.892 130.68,338.299 131.552,340.707 132.424,343.114 133.295,345.521 134.167,347.929 135.04,350.336 135.911,332.027 136.783,334.435 137.655,336.842 138.527,339.25 139.399,341.657 140.271,344.065 141.143,346.472 142.014,348.88 142.886,330.571 143.758,332.978 144.63,335.386 145.502,337.793 146.374,340.201 147.246,342.608 148.118,345.016 148.989,347.423 149.861,329.114 150.733,331.521 151.605,333.929 152.477,336.336 153.349,338.744 154.221,341.151 155.092,343.559 155.964,345.967 156.836,327.657 157.708,330.065 158.58,332.473 159.452,334.88 160.324,337.288 161.196,339.695 162.067,342.103 162.939,344.51 163.811,326.201 164.683,328.608 165.555,331.016 166.427,333.423 167.299,335.831 168.17,338.238 169.042,340.646 169.915,343.053 170.786,324.744 171.658,327.152 172.53,329.559 173.402,331.967 174.274,334.374 175.146,336.782 176.018,339.189 176.889,341.597 177.761,344.004 178.633,325.695 179.505,328.103 180.377,330.51 181.249,332.917 182.121,335.325 182.993,337.732 183.864,340.14 184.736,342.547 185.608,324.238 186.48,326.646 187.352,329.053 188.224,331.461 189.096,333.868 189.967,336.276 190.839,338.684 191.711,341.091 192.583,343.499 193.455,325.189 194.327,327.597 195.199,330.004 196.071,332.412 196.942,334.819 197.814,337.227 198.686,339.634 199.558,342.042 200.43,323.732 201.302,326.14 202.174,328.547 203.045,330.955 203.917,333.363 204.79,335.77 205.661,338.178 206.533,340.585 207.405,342.993 208.277,324.684 209.149,327.091 210.021,329.499 210.893,331.906 211.764,334.313 212.636,336.721 213.508,339.128 214.38,341.536 215.252,323.227 216.124,325.634 216.996,328.042 217.868,330.449 218.739,332.857 219.611,335.264 220.483,337.672 221.355,340.079 222.227,342.487 223.099,324.178 223.971,326.585 224.842,328.993 225.714,331.4 226.586,333.808 227.458,336.215 228.33,338.623 229.202,341.03 230.074,322.721 230.946,325.128 231.817,327.536 232.689,329.943 233.561,332.351 234.433,334.758 235.305,337.166 236.177,339.574 237.049,341.981 237.92,323.672 238.792,326.08 239.665,328.487 240.536,330.895 241.408,333.302 242.28,335.709 243.152,338.117 244.024,340.524 244.896,322.215 245.768,324.623 246.639,327.03 247.511,329.438 248.383,331.845 249.255,334.253 250.127,336.66 250.999,339.068 251.871,341.475 252.743,323.166 253.614,325.574 254.486,327.981 255.358,330.389 256.23,332.796 257.102,335.204 257.974,337.611 258.846,340.019 259.717,321.709 260.589,324.117 261.461,326.524 262.333,328.932 263.205,331.339 264.077,333.747 264.949,336.154 265.821,338.562 266.692,340.97 267.564,322.66 268.436,325.068 269.308,327.475 270.18,329.883 271.052,332.291 271.924,334.698 272.795,337.105 273.667,339.513 274.54,321.204 275.411,323.611 276.283,326.019 277.155,328.426 278.027,330.833 278.899,333.241 279.771,335.649 280.643,338.056 281.514,340.464 282.386,322.154 283.258,324.562 284.13,326.97 285.002,329.377 285.874,331.785 286.746,334.192 287.618,336.6 288.489,339.007 289.361,341.415 290.233,323.105 291.105,325.513 291.977,327.92 292.849,330.328 293.721,332.735 294.592,335.143 295.464,337.55 296.336,339.958 297.208,321.649 298.08,324.056 298.952,326.464 299.824,328.871 300.696,331.279 301.567,333.687 302.439,336.094 303.311,338.501 304.183,340.909 305.055,322.6 305.927,325.007 306.799,327.415 307.67,329.822 308.542,332.229 309.415,334.637 310.286,337.044 311.158,339.452 312.03,321.143 312.902,323.55 313.774,325.958 314.646,328.366 315.518,330.773 316.389,333.181 317.261,335.588 318.133,337.996 319.005,340.403 319.877,322.094 320.749,324.501 321.621,326.909 322.493,329.316 323.364,331.724 324.236,334.131 325.108,336.539 325.98,338.946 326.852,320.637 327.724,323.045 328.596,325.452 329.467,327.86 330.339,330.267 331.211,332.675 332.083,335.082 332.955,337.49 333.827,339.897 334.699,321.588 335.571,323.996 336.442,326.403 337.314,328.811 338.186,331.218 339.058,333.625 339.93,336.033 340.802,338.44 341.674,340.848 342.545,322.539 343.417,324.946 344.29,327.354 345.161,329.761 346.033,332.169 346.905,334.577 347.777,336.984 348.649,339.392 349.521,321.082 350.393,323.49 351.264,325.897 352.136,328.305 353.008,330.712 353.88,333.12 354.752,335.527 355.624,337.935 356.496,340.342 357.368,322.033 358.239,324.44 359.111,326.848 359.983,329.256 360.855,331.663 361.727,334.071 362.599,336.478 363.471,338.886 364.342,320.577 365.214,322.984 366.086,325.392 366.958,327.799 367.83,330.207 368.702,332.614 369.574,335.021 370.446,337.429 371.317,339.836 372.189,321.527 373.061,323.935 373.933,326.342 374.805,328.75 375.677,331.157 376.549,333.565 377.42,335.972 378.292,338.38 379.165,320.071 380.036,322.478 380.908,324.886 381.78,327.293 382.652,329.701 383.524,332.108 384.396,334.516 385.268,336.923 386.139,339.331 387.011,321.021 387.883,323.429 388.755,325.836 389.627,328.244 390.499,330.651 391.371,333.059 392.243,335.467 393.114,337.874 393.986,340.282 394.858,321.973 395.73,324.38 396.602,326.788 397.474,329.195 398.346,331.603 399.217,334.01 400.089,336.417 400.961,338.825 401.833,320.516 402.705,322.923 403.577,325.331 404.449,327.738 405.321,330.146 406.192,332.553 407.064,334.961 407.936,337.368 408.808,339.776 409.68,321.467 410.552,323.874 411.424,326.282 412.295,328.689 413.167,331.097 414.04,333.504 414.911,335.912 415.783,338.319 416.655,320.01 417.527,322.417 418.399,324.825 419.271,327.232 420.143,329.64 421.014,332.047 421.886,334.455 422.758,336.863 423.63,339.27 424.502,320.961 425.374,323.368 426.246,325.776 427.118,328.184 427.989,330.591 428.861,332.999 429.733,335.406 430.605,337.813 431.477,319.504 432.349,321.912 433.221,324.319 434.092,326.727 434.964,329.134 435.836,331.542 436.708,333.949 437.58,336.357 438.452,338.764 439.324,320.455 440.196,322.863 441.067,325.27 441.939,327.678 442.811,330.085 443.683,332.493 444.555,334.9 445.427,337.308 446.299,339.715 447.17,321.406 448.042,323.813 448.915,326.221 449.786,328.628 450.658,331.036 451.53,333.443 452.402,335.851 453.274,338.258 454.146,319.949 455.018,322.357 455.889,324.764 456.761,327.172 457.633,329.58 458.505,331.987 459.377,334.395 460.249,336.802 461.121,339.209 461.993,320.9 462.864,323.308 463.736,325.715 464.608,328.123 465.48,330.53 466.352,332.938 467.224,335.345 468.096,337.753 468.967,319.443 469.839,321.851 470.711,324.259 471.583,326.666 472.455,329.074 473.327,331.481 474.199,333.889 475.071,336.296 475.942,338.704 476.814,320.395 477.686,322.802 478.558,325.209 479.43,327.617 480.302,330.024 481.174,332.432 482.045,334.839 482.917,337.247 483.79,339.654 484.661,321.345 485.533,323.753 486.405,326.16 487.277,328.568 488.149,330.975 489.021,333.383 489.893,335.791 490.764,338.198 491.636,319.889 492.508,322.296 493.38,324.704 494.252,327.111 495.124,329.519 495.996,331.926 496.868,334.333 497.739,336.741 498.611,339.149 499.483,320.839 500.355,323.247 501.227,325.654 502.099,328.062 502.971,330.47 503.842,332.877 504.714,335.285 505.586,337.692 506.458,319.383 507.33,321.791 508.202,324.198 509.074,326.605 509.946,329.013 510.817,331.42 511.689,333.828 512.561,336.235 513.433,338.643 514.305,320.333 515.177,322.741 516.049,325.149 516.92,327.556 517.792,329.964 518.665,332.371 519.536,334.779 520.408,337.186 521.28,329.235" stroke-width="0.5" stroke="#0071bc" stroke-linejoin="round" fill="none" stroke-linecap="butt"/>
  </g>
 </g>
</svg>
