M48
; DRILL file {KiCad 5.1.5} date Mon 27 Apr 2020 04:23:22 PM PDT
; FORMAT={-:-/ absolute / inch / decimal}
; #@! TF.CreationDate,2020-04-27T16:23:22-07:00
; #@! TF.GenerationSoftware,Kicad,Pcbnew,5.1.5
; #@! TF.FileFunction,Plated,1,4,PTH
FMAT,2
INCH
T1C0.0100
%
G90
G05
T1
X4.6417Y-3.8012
X4.6417Y-3.9744
X4.6417Y-4.4173
X4.6417Y-4.5906
X4.6417Y-5.0354
X4.6417Y-5.2087
X4.6433Y-3.6222
X4.6433Y-4.1282
X4.6433Y-4.2202
X4.6433Y-4.7492
X4.6433Y-4.8412
X4.6433Y-5.3702
X4.6811Y-3.8012
X4.6811Y-3.9744
X4.6811Y-4.4173
X4.6811Y-4.5906
X4.6811Y-5.0354
X4.6811Y-5.2087
X4.6893Y-4.1742
X4.6893Y-4.2662
X4.6893Y-4.7952
X4.7123Y-3.6452
X4.7123Y-4.8642
X4.7123Y-5.3932
X4.7205Y-3.8012
X4.7205Y-3.9744
X4.7205Y-4.4173
X4.7205Y-4.5906
X4.7205Y-5.0354
X4.7205Y-5.2087
X4.7353Y-4.1282
X4.7353Y-4.2202
X4.7353Y-4.7492
X4.7583Y-4.8182
X4.7598Y-3.8012
X4.7598Y-3.9744
X4.7598Y-4.4173
X4.7598Y-4.5906
X4.7598Y-5.0354
X4.7598Y-5.2087
X4.7813Y-3.6222
X4.7813Y-4.1742
X4.7813Y-4.2662
X4.7813Y-5.3702
X4.7992Y-3.8012
X4.7992Y-3.9744
X4.7992Y-4.4173
X4.7992Y-4.5906
X4.7992Y-5.0354
X4.7992Y-5.2087
X4.8043Y-4.7722
X4.8043Y-4.8642
X4.8273Y-3.6682
X4.8273Y-3.7602
X4.8273Y-4.0132
X4.8273Y-4.1052
X4.8273Y-4.2202
X4.8273Y-4.3122
X4.8273Y-4.6342
X4.8273Y-4.9332
X4.8273Y-5.2552
X4.8386Y-3.8012
X4.8386Y-3.9744
X4.8386Y-4.4173
X4.8386Y-4.5906
X4.8386Y-5.0354
X4.8386Y-5.2087
X4.8503Y-4.3812
X4.8503Y-4.7032
X4.8503Y-4.8182
X4.8503Y-5.3242
X4.8733Y-3.6222
X4.8733Y-3.7142
X4.8733Y-4.0592
X4.8733Y-4.1512
X4.8733Y-4.2662
X4.8733Y-4.8872
X4.8733Y-4.9792
X4.8733Y-5.3932
X4.878Y-3.8012
X4.878Y-3.9744
X4.878Y-4.4173
X4.878Y-4.5906
X4.878Y-5.0354
X4.878Y-5.2087
X4.8963Y-4.3352
X4.8963Y-4.6572
X4.8963Y-4.7492
X4.8963Y-5.2782
X4.9173Y-3.8012
X4.9173Y-3.9744
X4.9173Y-4.4173
X4.9173Y-4.5906
X4.9173Y-5.0354
X4.9173Y-5.2087
X4.9193Y-3.6682
X4.9193Y-3.7602
X4.9193Y-4.0132
X4.9193Y-4.1052
X4.9193Y-4.1972
X4.9193Y-4.8412
X4.9193Y-4.9332
X4.9193Y-5.3472
X4.9423Y-4.2892
X4.9423Y-4.3812
X4.9423Y-4.7032
X4.9567Y-3.8012
X4.9567Y-3.9744
X4.9567Y-4.4173
X4.9567Y-4.5906
X4.9567Y-5.0354
X4.9567Y-5.2087
X4.9653Y-3.6222
X4.9653Y-3.7142
X4.9653Y-4.0592
X4.9653Y-4.1512
X4.9653Y-4.6342
X4.9653Y-4.7722
X4.9653Y-4.8872
X4.9653Y-4.9792
X4.9653Y-5.2552
X4.9653Y-5.3932
X4.9883Y-4.2202
X4.9883Y-4.3352
X4.9883Y-5.3242
X4.9961Y-3.8012
X4.9961Y-3.9744
X4.9961Y-4.4173
X4.9961Y-4.5906
X4.9961Y-5.0354
X4.9961Y-5.2087
X5.0113Y-3.6682
X5.0113Y-3.7602
X5.0113Y-4.0132
X5.0113Y-4.1052
X5.0113Y-4.6802
X5.0113Y-4.8182
X5.0113Y-4.9332
X5.0343Y-4.1742
X5.0343Y-4.2662
X5.0343Y-4.3812
X5.0343Y-4.7492
X5.0343Y-5.2782
X5.0343Y-5.3702
X5.0354Y-3.8012
X5.0354Y-3.9744
X5.0354Y-4.4173
X5.0354Y-4.5906
X5.0354Y-5.0354
X5.0354Y-5.2087
X5.0573Y-3.6222
X5.0573Y-3.7142
X5.0573Y-4.0592
X5.0573Y-4.6342
X5.0573Y-4.8642
X5.0573Y-4.9792
X5.0748Y-3.8012
X5.0748Y-3.9744
X5.0748Y-4.4173
X5.0748Y-4.5906
X5.0748Y-5.0354
X5.0748Y-5.2087
X5.0803Y-4.1282
X5.0803Y-4.2202
X5.0803Y-4.3122
X5.0803Y-4.7032
X5.0803Y-4.7952
X5.0803Y-5.3242
X5.1033Y-3.6682
X5.1033Y-3.7602
X5.1033Y-4.0132
X5.1033Y-4.9102
X5.1033Y-5.2552
X5.1033Y-5.3932
X5.1142Y-3.8012
X5.1142Y-3.9744
X5.1142Y-4.4173
X5.1142Y-4.5906
X5.1142Y-5.0354
X5.1142Y-5.2087
X5.1263Y-4.0822
X5.1263Y-4.1742
X5.1263Y-4.2662
X5.1263Y-4.3582
X5.1263Y-4.6572
X5.1263Y-4.7492
X5.1263Y-4.8412
X5.1493Y-3.6222
X5.1493Y-3.7142
X5.1493Y-4.9562
X5.1493Y-5.3012
X5.1535Y-3.8012
X5.1535Y-3.9744
X5.1535Y-4.4173
X5.1535Y-4.5906
X5.1535Y-5.0354
X5.1535Y-5.2087
X5.1723Y-4.0362
X5.1723Y-4.1282
X5.1723Y-4.2202
X5.1723Y-4.3122
X5.1723Y-4.7032
X5.1723Y-4.7952
X5.1723Y-4.8872
X5.1723Y-5.3702
X5.1929Y-3.8012
X5.1929Y-3.9744
X5.1929Y-4.4173
X5.1929Y-4.5906
X5.1929Y-5.0354
X5.1929Y-5.2087
X5.1953Y-3.6682
X5.1953Y-3.7602
X5.1953Y-4.3812
X5.1953Y-4.6342
X5.1953Y-5.2552
X5.2183Y-4.0822
X5.2183Y-4.1742
X5.2183Y-4.2662
X5.2183Y-4.7492
X5.2183Y-4.8412
X5.2183Y-4.9332
X5.2183Y-5.3242
X5.2323Y-3.8012
X5.2323Y-3.9744
X5.2323Y-4.4173
X5.2323Y-4.5906
X5.2323Y-5.0354
X5.2323Y-5.2087
X5.2413Y-3.6222
X5.2413Y-3.7142
X5.2413Y-4.0132
X5.2413Y-4.3352
X5.2413Y-4.6802
X5.2413Y-5.3932
X5.2643Y-4.1282
X5.2643Y-4.2202
X5.2643Y-4.7952
X5.2643Y-4.8872
X5.2643Y-4.9792
X5.2643Y-5.2782
X5.2717Y-3.8012
X5.2717Y-3.9744
X5.2717Y-4.4173
X5.2717Y-4.5906
X5.2717Y-5.0354
X5.2717Y-5.2087
X5.2873Y-3.6682
X5.2873Y-3.7602
X5.2873Y-4.0592
X5.2873Y-4.2892
X5.2873Y-4.3812
X5.2873Y-4.6342
X5.2873Y-4.7262
X5.2873Y-5.3472
X5.3103Y-4.1742
X5.3103Y-4.8412
X5.3103Y-4.9332
X5.311Y-3.8012
X5.311Y-3.9744
X5.311Y-4.4173
X5.311Y-4.5906
X5.311Y-5.0354
X5.311Y-5.2087
X5.3333Y-3.6222
X5.3333Y-3.7142
X5.3333Y-4.0132
X5.3333Y-4.1052
X5.3333Y-4.2432
X5.3333Y-4.3352
X5.3333Y-4.6802
X5.3333Y-4.7722
X5.3333Y-5.2552
X5.3333Y-5.3932
X5.3504Y-3.8012
X5.3504Y-3.9744
X5.3504Y-4.4173
X5.3504Y-4.5906
X5.3504Y-5.0354
X5.3504Y-5.2087
X5.3563Y-4.8872
X5.3563Y-4.9792
X5.3563Y-5.3242
X5.3793Y-3.6682
X5.3793Y-3.7602
X5.3793Y-4.0592
X5.3793Y-4.1512
X5.3793Y-4.2892
X5.3793Y-4.3812
X5.3793Y-4.6342
X5.3793Y-4.7262
X5.3793Y-4.8182
X5.3898Y-3.8012
X5.3898Y-3.9744
X5.3898Y-4.4173
X5.3898Y-4.5906
X5.3898Y-5.0354
X5.3898Y-5.2087
X5.4023Y-4.2202
X5.4023Y-4.9332
X5.4023Y-5.2782
X5.4023Y-5.3702
X5.4253Y-3.6222
X5.4253Y-3.7142
X5.4253Y-4.0132
X5.4253Y-4.1052
X5.4253Y-4.3352
X5.4253Y-4.6802
X5.4253Y-4.7722
X5.4253Y-4.8642
X5.4291Y-3.8012
X5.4291Y-3.9744
X5.4291Y-4.4173
X5.4291Y-4.5906
X5.4291Y-5.0354
X5.4291Y-5.2087
X5.4483Y-4.1742
X5.4483Y-4.2662
X5.4483Y-4.9792
X5.4483Y-5.3242
X5.4685Y-3.8012
X5.4685Y-3.9744
X5.4685Y-4.4173
X5.4685Y-4.5906
X5.4685Y-5.0354
X5.4685Y-5.2087
X5.4713Y-3.6682
X5.4713Y-3.7602
X5.4713Y-4.0592
X5.4713Y-4.3812
X5.4713Y-4.6342
X5.4713Y-4.7262
X5.4713Y-4.8182
X5.4713Y-4.9102
X5.4713Y-5.2552
X5.4713Y-5.3932
X5.4943Y-4.1282
X5.4943Y-4.2202
X5.4943Y-4.3122
X5.5079Y-3.8012
X5.5079Y-3.9744
X5.5079Y-4.4173
X5.5079Y-4.5906
X5.5079Y-5.0354
X5.5079Y-5.2087
X5.5173Y-3.6222
X5.5173Y-3.7142
X5.5173Y-4.0132
X5.5173Y-4.6802
X5.5173Y-4.7722
X5.5173Y-4.8642
X5.5173Y-4.9562
X5.5173Y-5.3012
X5.5403Y-4.0822
X5.5403Y-4.1742
X5.5403Y-4.2662
X5.5403Y-4.3582
X5.5403Y-5.3702
X5.5472Y-3.8012
X5.5472Y-3.9744
X5.5472Y-4.4173
X5.5472Y-4.5906
X5.5472Y-5.0354
X5.5472Y-5.2087
X5.5633Y-3.6682
X5.5633Y-3.7602
X5.5633Y-4.6342
X5.5633Y-4.7262
X5.5633Y-4.8182
X5.5633Y-4.9102
X5.5633Y-5.2552
X5.5863Y-4.1282
X5.5863Y-4.2202
X5.5866Y-3.8012
X5.5866Y-3.9744
X5.5866Y-4.4173
X5.5866Y-4.5906
X5.5866Y-5.0354
X5.5866Y-5.2087
X5.6093Y-3.6222
X5.6093Y-4.7722
X5.6093Y-4.8642
X5.6093Y-5.3932
X5.626Y-3.8012
X5.626Y-3.9744
X5.626Y-4.4173
X5.626Y-4.5906
X5.626Y-5.0354
X5.626Y-5.2087
X5.6323Y-4.1742
X5.6323Y-4.2662
X5.6553Y-4.8182
X5.6654Y-3.8012
X5.6654Y-3.9744
X5.6654Y-4.4173
X5.6654Y-4.5906
X5.6654Y-5.0354
X5.6654Y-5.2087
X5.6783Y-3.6452
X5.6783Y-4.1282
X5.6783Y-4.2202
X5.6783Y-4.7492
X5.6783Y-5.3702
X5.7013Y-4.8642
X5.7047Y-3.8012
X5.7047Y-3.9744
X5.7047Y-4.4173
X5.7047Y-4.5906
X5.7047Y-5.0354
X5.7047Y-5.2087
X5.7243Y-4.1742
X5.7243Y-4.2662
X5.7243Y-4.7952
X5.7441Y-3.8012
X5.7441Y-3.9744
X5.7441Y-4.4173
X5.7441Y-4.5906
X5.7441Y-5.0354
X5.7441Y-5.2087
X5.7473Y-3.6222
X5.7473Y-5.3932
X5.5984Y-4.9843
X5.5984Y-5.2598
X5.6378Y-4.9843
X5.6378Y-5.2598
X5.6772Y-4.9843
X5.6772Y-5.2598
X5.7165Y-4.9843
X5.7165Y-5.2598
X5.7559Y-4.9843
X5.7559Y-5.2598
X4.6299Y-4.9843
X4.6299Y-5.2598
X4.6693Y-4.9843
X4.6693Y-5.2598
X4.7087Y-4.9843
X4.7087Y-5.2598
X4.748Y-4.9843
X4.748Y-5.2598
X4.7874Y-4.9843
X4.7874Y-5.2598
X5.5984Y-3.75
X5.5984Y-4.0256
X5.6378Y-3.75
X5.6378Y-4.0256
X5.6772Y-3.75
X5.6772Y-4.0256
X5.7165Y-3.75
X5.7165Y-4.0256
X5.7559Y-3.75
X5.7559Y-4.0256
X5.5984Y-4.3661
X5.5984Y-4.6417
X5.6378Y-4.3661
X5.6378Y-4.6417
X5.6772Y-4.3661
X5.6772Y-4.6417
X5.7165Y-4.3661
X5.7165Y-4.6417
X5.7559Y-4.3661
X5.7559Y-4.6417
X4.6299Y-4.3661
X4.6299Y-4.6417
X4.6693Y-4.3661
X4.6693Y-4.6417
X4.7087Y-4.3661
X4.7087Y-4.6417
X4.748Y-4.3661
X4.748Y-4.6417
X4.7874Y-4.3661
X4.7874Y-4.6417
X4.6299Y-3.75
X4.6299Y-4.0256
X4.6693Y-3.75
X4.6693Y-4.0256
X4.7087Y-3.75
X4.7087Y-4.0256
X4.748Y-3.75
X4.748Y-4.0256
X4.7874Y-3.75
X4.7874Y-4.0256
T0
M30
