M48
; DRILL file {KiCad 5.1.5} date Mon 27 Apr 2020 05:16:14 PM PDT
; FORMAT={-:-/ absolute / inch / decimal}
; #@! TF.CreationDate,2020-04-27T17:16:14-07:00
; #@! TF.GenerationSoftware,Kicad,Pcbnew,5.1.5
; #@! TF.FileFunction,Plated,1,4,PTH
FMAT,2
INCH
T1C0.0100
T2C0.0449
%
G90
G05
T1
X5.1658Y-2.412
X5.1658Y-2.8001
X5.1658Y-2.9036
X5.1658Y-3.0071
X5.1658Y-3.1106
X5.1658Y-3.5764
X5.1658Y-3.6798
X5.1658Y-3.7833
X5.1658Y-3.8868
X5.1658Y-3.9903
X5.1658Y-4.3784
X5.1658Y-4.4819
X5.1658Y-4.5854
X5.1658Y-4.6889
X5.1658Y-5.1547
X5.1917Y-3.1882
X5.1917Y-4.7666
X5.2176Y-2.8519
X5.2176Y-2.9554
X5.2176Y-3.0589
X5.2176Y-3.6281
X5.2176Y-3.7316
X5.2176Y-3.8351
X5.2176Y-3.9386
X5.2176Y-4.4302
X5.2176Y-4.5337
X5.2176Y-4.6372
X5.2435Y-3.1365
X5.2435Y-4.7148
X5.2435Y-5.1805
X5.2693Y-2.412
X5.2693Y-2.8001
X5.2693Y-2.9036
X5.2693Y-3.0071
X5.2693Y-3.5764
X5.2693Y-3.6798
X5.2693Y-3.7833
X5.2693Y-3.8868
X5.2693Y-3.9903
X5.2693Y-4.3784
X5.2693Y-4.4819
X5.2693Y-4.5854
X5.2952Y-3.0847
X5.2952Y-3.1882
X5.2952Y-4.6631
X5.2952Y-4.7666
X5.3211Y-2.8519
X5.3211Y-2.9554
X5.3211Y-3.6281
X5.3211Y-3.7316
X5.3211Y-3.8351
X5.3211Y-3.9386
X5.3211Y-4.4302
X5.3211Y-4.5337
X5.3211Y-5.1547
X5.347Y-3.033
X5.347Y-3.1365
X5.347Y-4.6113
X5.347Y-4.7148
X5.3728Y-2.412
X5.3728Y-2.7484
X5.3728Y-2.9036
X5.3728Y-3.2141
X5.3728Y-3.5246
X5.3728Y-3.6798
X5.3728Y-3.7833
X5.3728Y-3.8868
X5.3728Y-3.9903
X5.3728Y-4.3008
X5.3728Y-4.4819
X5.3728Y-4.7924
X5.3728Y-5.1029
X5.3774Y-2.5157
X5.3774Y-2.689
X5.3808Y-3.3031
X5.3808Y-3.4764
X5.3858Y-4.878
X5.3858Y-5.0512
X5.3916Y-4.0906
X5.3916Y-4.2638
X5.3987Y-2.826
X5.3987Y-2.9812
X5.3987Y-3.0847
X5.3987Y-3.6022
X5.3987Y-4.3784
X5.3987Y-4.5596
X5.3987Y-4.6631
X5.3987Y-5.1805
X5.4168Y-2.5157
X5.4168Y-2.689
X5.4208Y-3.3031
X5.4208Y-3.4764
X5.4246Y-2.4638
X5.4246Y-3.1624
X5.4246Y-3.2659
X5.4246Y-3.7316
X5.4246Y-3.8351
X5.4246Y-3.9386
X5.4246Y-4.0421
X5.4246Y-4.7407
X5.4267Y-4.878
X5.4267Y-5.0512
X5.4334Y-4.0906
X5.4334Y-4.2638
X5.4505Y-2.7743
X5.4505Y-2.8778
X5.4505Y-3.033
X5.4505Y-3.5505
X5.4505Y-3.654
X5.4505Y-4.3267
X5.4505Y-4.4302
X5.4505Y-4.6113
X5.4505Y-4.8183
X5.4505Y-5.1288
X5.4563Y-2.5157
X5.4563Y-2.689
X5.4608Y-3.3031
X5.4608Y-3.4764
X5.4675Y-4.878
X5.4675Y-5.0512
X5.4752Y-4.0906
X5.4752Y-4.2638
X5.4763Y-2.412
X5.4763Y-2.9554
X5.4763Y-3.1106
X5.4763Y-3.2141
X5.4763Y-3.7833
X5.4763Y-3.8868
X5.4763Y-3.9903
X5.4763Y-4.5078
X5.4763Y-4.6889
X5.4957Y-2.5157
X5.4957Y-2.689
X5.5008Y-3.3031
X5.5008Y-3.4764
X5.5022Y-2.826
X5.5022Y-3.6022
X5.5022Y-3.7057
X5.5022Y-4.3784
X5.5022Y-4.7666
X5.5022Y-5.1805
X5.5084Y-4.878
X5.5084Y-5.0512
X5.517Y-4.0906
X5.517Y-4.2638
X5.5281Y-2.4638
X5.5281Y-2.7484
X5.5281Y-2.9036
X5.5281Y-3.0071
X5.5281Y-3.1624
X5.5281Y-3.2659
X5.5281Y-3.5246
X5.5281Y-3.8351
X5.5281Y-3.9386
X5.5281Y-4.0421
X5.5281Y-4.3008
X5.5281Y-4.4561
X5.5281Y-4.5596
X5.5281Y-5.1029
X5.5351Y-2.5157
X5.5351Y-2.689
X5.5408Y-3.3031
X5.5408Y-3.4764
X5.5492Y-4.878
X5.5492Y-5.0512
X5.554Y-3.0847
X5.554Y-3.654
X5.554Y-3.7575
X5.554Y-4.6372
X5.5588Y-4.0906
X5.5588Y-4.2638
X5.5746Y-2.5157
X5.5746Y-2.689
X5.5798Y-2.412
X5.5798Y-2.8001
X5.5798Y-2.9554
X5.5798Y-3.5764
X5.5798Y-3.8868
X5.5798Y-3.9903
X5.5798Y-4.3526
X5.5798Y-4.5078
X5.5798Y-4.7148
X5.5798Y-5.1547
X5.5808Y-3.3031
X5.5808Y-3.4764
X5.5901Y-4.878
X5.5901Y-5.0512
X5.6006Y-4.0906
X5.6006Y-4.2638
X5.6057Y-2.8778
X5.6057Y-3.033
X5.6057Y-3.1365
X5.6057Y-3.7057
X5.6057Y-3.8092
X5.6057Y-4.4302
X5.6057Y-4.5854
X5.614Y-2.5157
X5.614Y-2.689
X5.6208Y-3.3031
X5.6208Y-3.4764
X5.6309Y-4.878
X5.6309Y-5.0512
X5.6316Y-2.7484
X5.6316Y-3.5246
X5.6316Y-3.6281
X5.6316Y-3.9386
X5.6316Y-4.3008
X5.6316Y-4.6631
X5.6316Y-4.7666
X5.6316Y-5.1029
X5.6424Y-4.0906
X5.6424Y-4.2638
X5.6534Y-2.5157
X5.6534Y-2.689
X5.6574Y-2.826
X5.6574Y-2.9295
X5.6574Y-3.0847
X5.6574Y-3.1882
X5.6574Y-3.7575
X5.6574Y-3.861
X5.6574Y-4.3784
X5.6574Y-4.4819
X5.6574Y-5.1805
X5.6608Y-3.3031
X5.6608Y-3.4764
X5.6718Y-4.878
X5.6718Y-5.0512
X5.6833Y-2.412
X5.6833Y-3.0071
X5.6833Y-3.5764
X5.6833Y-3.6798
X5.6833Y-3.9903
X5.6833Y-4.5596
X5.6833Y-4.7148
X5.6842Y-4.0906
X5.6842Y-4.2638
X5.6929Y-2.5157
X5.6929Y-2.689
X5.6929Y-3.3031
X5.6929Y-3.4764
X5.6969Y-5.0039
X5.7092Y-2.7743
X5.7092Y-2.8778
X5.7092Y-3.1365
X5.7092Y-3.8092
X5.7092Y-3.9127
X5.7092Y-4.3267
X5.7092Y-4.4302
X5.7092Y-4.6372
X5.7092Y-5.1288
X5.7126Y-4.878
X5.7126Y-5.0512
X5.7244Y-3.3031
X5.7244Y-3.4764
X5.7283Y-5.0039
X5.7323Y-4.0906
X5.7323Y-4.2638
X5.7323Y-2.5157
X5.7323Y-2.689
X5.7351Y-2.9554
X5.7351Y-3.0589
X5.7351Y-3.5246
X5.7351Y-3.6281
X5.7351Y-3.7316
X5.7351Y-4.5078
X5.7351Y-4.7666
X5.752Y-4.878
X5.752Y-5.0512
X5.7609Y-2.826
X5.7609Y-3.1882
X5.7609Y-3.861
X5.7609Y-3.9645
X5.7609Y-4.3784
X5.7609Y-4.5854
X5.7609Y-4.6889
X5.7609Y-5.1805
X5.7644Y-3.3031
X5.7644Y-3.4764
X5.7717Y-4.0906
X5.7717Y-4.2638
X5.7718Y-2.5157
X5.7718Y-2.689
X5.7868Y-2.412
X5.7868Y-2.7484
X5.7868Y-2.9036
X5.7868Y-3.0071
X5.7868Y-3.1106
X5.7868Y-3.5764
X5.7868Y-3.6798
X5.7868Y-3.7833
X5.7868Y-4.3008
X5.7868Y-4.4561
X5.7868Y-5.1029
X5.7943Y-4.878
X5.7943Y-5.0512
X5.8044Y-3.3031
X5.8044Y-3.4764
X5.8112Y-4.0906
X5.8112Y-4.2638
X5.8112Y-2.5157
X5.8112Y-2.689
X5.8127Y-3.9127
X5.8127Y-4.5337
X5.8127Y-4.6372
X5.8127Y-4.7407
X5.8351Y-4.878
X5.8351Y-5.0512
X5.8386Y-2.8001
X5.8386Y-2.9554
X5.8386Y-3.0589
X5.8386Y-3.1624
X5.8386Y-3.5246
X5.8386Y-3.6281
X5.8386Y-3.7316
X5.8386Y-3.8351
X5.8386Y-4.3526
X5.8386Y-5.1547
X5.8444Y-3.3031
X5.8444Y-3.4764
X5.8506Y-4.0906
X5.8506Y-4.2638
X5.8506Y-2.5157
X5.8506Y-2.689
X5.8644Y-2.8778
X5.8644Y-3.9645
X5.8644Y-4.4302
X5.8644Y-4.5854
X5.8644Y-4.6889
X5.876Y-4.878
X5.876Y-5.0512
X5.8844Y-3.3031
X5.8844Y-3.4764
X5.89Y-4.0906
X5.89Y-4.2638
X5.8901Y-2.5157
X5.8901Y-2.689
X5.8903Y-2.412
X5.8903Y-2.7484
X5.8903Y-3.0071
X5.8903Y-3.1106
X5.8903Y-3.5764
X5.8903Y-3.6798
X5.8903Y-3.7833
X5.8903Y-3.8868
X5.8903Y-4.0421
X5.8903Y-4.3008
X5.8903Y-4.5078
X5.8903Y-5.1029
X5.9162Y-2.826
X5.9162Y-2.9295
X5.9162Y-3.1882
X5.9162Y-4.3784
X5.9162Y-4.6372
X5.9162Y-4.7407
X5.9162Y-5.1805
X5.9168Y-4.878
X5.9168Y-5.0512
X5.9244Y-3.3031
X5.9244Y-3.4764
X5.9295Y-4.0906
X5.9295Y-4.2638
X5.9295Y-2.5157
X5.9295Y-2.689
X5.9421Y-2.4638
X5.9421Y-3.0589
X5.9421Y-3.2659
X5.9421Y-3.5246
X5.9421Y-3.6281
X5.9421Y-3.7316
X5.9421Y-3.8351
X5.9421Y-3.9386
X5.9421Y-4.4561
X5.9421Y-4.5596
X5.9421Y-4.8183
X5.9577Y-4.878
X5.9577Y-5.0512
X5.9644Y-3.3031
X5.9644Y-3.4764
X5.9679Y-2.7743
X5.9679Y-2.8778
X5.9679Y-2.9812
X5.9679Y-3.1365
X5.9679Y-4.0162
X5.9679Y-4.3267
X5.9679Y-4.6889
X5.9679Y-5.1288
X5.9689Y-4.0906
X5.9689Y-4.2638
X5.9689Y-2.5157
X5.9689Y-2.689
X5.9938Y-2.412
X5.9938Y-3.2141
X5.9938Y-3.5764
X5.9938Y-3.6798
X5.9938Y-3.7833
X5.9938Y-3.8868
X5.9938Y-4.4043
X5.9938Y-4.5078
X5.9938Y-4.6113
X5.9938Y-4.7666
X5.9985Y-4.878
X5.9985Y-5.0512
X6.0044Y-3.3031
X6.0044Y-3.4764
X6.0084Y-4.0906
X6.0084Y-4.2638
X6.0084Y-2.5157
X6.0084Y-2.689
X6.0197Y-2.826
X6.0197Y-2.9295
X6.0197Y-3.033
X6.0197Y-3.9645
X6.0197Y-5.1805
X6.0394Y-4.878
X6.0394Y-5.0512
X6.0444Y-3.3031
X6.0444Y-3.4764
X6.0456Y-2.4638
X6.0456Y-2.7484
X6.0456Y-3.1106
X6.0456Y-3.2659
X6.0456Y-3.5246
X6.0456Y-3.6281
X6.0456Y-3.7316
X6.0456Y-3.8351
X6.0456Y-4.0421
X6.0456Y-4.3008
X6.0456Y-4.4561
X6.0456Y-4.5596
X6.0456Y-4.6631
X6.0456Y-4.8183
X6.0456Y-5.1029
X6.0478Y-4.0906
X6.0478Y-4.2638
X6.0478Y-2.5157
X6.0478Y-2.689
X6.0714Y-2.8778
X6.0714Y-2.9812
X6.0714Y-3.1882
X6.0714Y-3.9127
X6.0714Y-4.3784
X6.0714Y-4.7407
X6.0973Y-2.412
X6.0973Y-2.8001
X6.0973Y-3.0589
X6.0973Y-3.5764
X6.0973Y-3.6798
X6.0973Y-3.7833
X6.0973Y-3.9903
X6.0973Y-4.5078
X6.0973Y-4.6113
X6.0973Y-5.1547
X6.1232Y-2.9295
X6.1232Y-3.1365
X6.1232Y-3.861
X6.1232Y-4.4302
X6.1232Y-4.6889
X6.1491Y-2.8519
X6.1491Y-3.0071
X6.1491Y-3.6281
X6.1491Y-3.7316
X6.1491Y-3.9386
X6.1491Y-4.5596
X6.1491Y-4.7666
X6.1749Y-3.0847
X6.1749Y-3.1882
X6.1749Y-3.8092
X6.1749Y-4.3784
X6.1749Y-4.4819
X6.1749Y-4.6372
X6.1749Y-5.1805
X6.2008Y-2.412
X6.2008Y-2.8001
X6.2008Y-2.9036
X6.2008Y-3.5764
X6.2008Y-3.6798
X6.2008Y-3.8868
X6.2008Y-3.9903
X6.2008Y-4.7148
X6.2267Y-2.9812
X6.2267Y-3.1365
X6.2267Y-3.7575
X6.2267Y-4.4302
X6.2267Y-4.5337
X6.2526Y-2.8519
X6.2526Y-3.0589
X6.2526Y-3.6281
X6.2526Y-3.8351
X6.2526Y-3.9386
X6.2526Y-4.6113
X6.2526Y-4.7666
X6.2526Y-5.1547
X5.1407Y-2.4563
X5.1407Y-2.563
X5.1407Y-2.6417
X5.1407Y-2.748
X5.1841Y-2.4567
X5.188Y-2.748
X5.2313Y-2.4567
X5.2352Y-2.563
X5.2352Y-2.6417
X5.2352Y-2.748
X5.2785Y-2.4567
X5.2825Y-2.748
X5.3258Y-2.4567
X5.3258Y-2.563
X5.3258Y-2.6417
X5.3258Y-2.7484
X5.1407Y-3.2437
X5.1407Y-3.3504
X5.1407Y-3.4291
X5.1407Y-3.5354
X5.1841Y-3.2441
X5.188Y-3.5354
X5.2313Y-3.2441
X5.2352Y-3.3504
X5.2352Y-3.4291
X5.2352Y-3.5354
X5.2785Y-3.2441
X5.2825Y-3.5354
X5.3258Y-3.2441
X5.3258Y-3.3504
X5.3258Y-3.4291
X5.3258Y-3.5358
X6.0994Y-3.2437
X6.0994Y-3.3504
X6.0994Y-3.4291
X6.0994Y-3.5354
X6.1427Y-3.2441
X6.1467Y-3.5354
X6.19Y-3.2441
X6.19Y-3.3504
X6.19Y-3.4291
X6.1939Y-3.5354
X6.2372Y-3.2441
X6.2411Y-3.5354
X6.2844Y-3.2441
X6.2844Y-3.3504
X6.2844Y-3.4291
X6.2844Y-3.5358
X5.1407Y-4.8185
X5.1407Y-4.9252
X5.1407Y-5.0039
X5.1407Y-5.1102
X5.1841Y-4.8189
X5.188Y-5.1102
X5.2313Y-4.8189
X5.2352Y-4.9252
X5.2352Y-5.0039
X5.2352Y-5.1102
X5.2785Y-4.8189
X5.2825Y-5.1102
X5.3258Y-4.8189
X5.3258Y-4.9252
X5.3258Y-5.0039
X5.3258Y-5.1106
X6.0994Y-2.4563
X6.0994Y-2.563
X6.0994Y-2.6417
X6.0994Y-2.748
X6.1427Y-2.4567
X6.1467Y-2.748
X6.19Y-2.4567
X6.19Y-2.563
X6.19Y-2.6417
X6.1939Y-2.748
X6.2372Y-2.4567
X6.2411Y-2.748
X6.2844Y-2.4567
X6.2844Y-2.563
X6.2844Y-2.6417
X6.2844Y-2.7484
X6.0994Y-4.0311
X6.0994Y-4.1378
X6.0994Y-4.2165
X6.0994Y-4.3228
X6.1427Y-4.0315
X6.1467Y-4.3228
X6.19Y-4.0315
X6.19Y-4.1378
X6.19Y-4.2165
X6.1939Y-4.3228
X6.2372Y-4.0315
X6.2411Y-4.3228
X6.2844Y-4.0315
X6.2844Y-4.1378
X6.2844Y-4.2165
X6.2844Y-4.3232
X6.0994Y-4.8185
X6.0994Y-4.9252
X6.0994Y-5.0039
X6.0994Y-5.1102
X6.1427Y-4.8189
X6.1467Y-5.1102
X6.19Y-4.8189
X6.19Y-4.9252
X6.19Y-5.0039
X6.1939Y-5.1102
X6.2372Y-4.8189
X6.2411Y-5.1102
X6.2844Y-4.8189
X6.2844Y-4.9252
X6.2844Y-5.0039
X6.2844Y-5.1106
X5.1407Y-4.0311
X5.1407Y-4.1378
X5.1407Y-4.2165
X5.1407Y-4.3228
X5.1841Y-4.0315
X5.188Y-4.3228
X5.2313Y-4.0315
X5.2352Y-4.1378
X5.2352Y-4.2165
X5.2352Y-4.3228
X5.2785Y-4.0315
X5.2825Y-4.3228
X5.3258Y-4.0315
X5.3258Y-4.1378
X5.3258Y-4.2165
X5.3258Y-4.3232
T2
X6.1472Y-4.9081
X6.1472Y-5.0211
X6.2343Y-4.9081
X6.2343Y-5.0211
X5.1909Y-4.1207
X5.1909Y-4.2337
X5.278Y-4.1207
X5.278Y-4.2337
X5.1909Y-2.5459
X5.1909Y-2.6589
X5.278Y-2.5459
X5.278Y-2.6589
X5.1909Y-3.3333
X5.1909Y-3.4463
X5.278Y-3.3333
X5.278Y-3.4463
X6.1472Y-3.3333
X6.1472Y-3.4463
X6.2343Y-3.3333
X6.2343Y-3.4463
X5.1909Y-4.9081
X5.1909Y-5.0211
X5.278Y-4.9081
X5.278Y-5.0211
X6.1472Y-2.5459
X6.1472Y-2.6589
X6.2343Y-2.5459
X6.2343Y-2.6589
X6.1472Y-4.1207
X6.1472Y-4.2337
X6.2343Y-4.1207
X6.2343Y-4.2337
T0
M30
