M48
; DRILL file {KiCad 5.1.5} date Tue 28 Apr 2020 10:59:45 AM PDT
; FORMAT={-:-/ absolute / inch / decimal}
; #@! TF.CreationDate,2020-04-28T10:59:45-07:00
; #@! TF.GenerationSoftware,Kicad,Pcbnew,5.1.5
; #@! TF.FileFunction,Plated,1,4,PTH
FMAT,2
INCH
T1C0.0100
%
G90
G05
T1
X3.9764Y-2.5906
X3.9764Y-2.7638
X3.9779Y-2.979
X3.9779Y-3.071
X3.9779Y-3.186
X3.9779Y-3.278
X3.9808Y-2.4126
X3.9808Y-2.9301
X3.9808Y-3.0335
X3.9808Y-3.137
X3.9808Y-3.2405
X4.0166Y-2.5906
X4.0166Y-2.7638
X4.0239Y-2.404
X4.0239Y-2.933
X4.0239Y-3.025
X4.0326Y-2.9818
X4.0326Y-3.0853
X4.0569Y-2.5906
X4.0569Y-2.7638
X4.0584Y-2.4384
X4.0699Y-2.979
X4.0699Y-3.071
X4.0843Y-2.9301
X4.0843Y-3.0335
X4.0971Y-2.5906
X4.0971Y-2.7638
X4.136Y-2.4126
X4.136Y-2.9818
X4.1374Y-2.5906
X4.1374Y-2.7638
X4.1619Y-2.4902
X4.1619Y-2.8007
X4.1619Y-2.9042
X4.1619Y-2.45
X4.1619Y-2.542
X4.1619Y-2.841
X4.1697Y-3.0671
X4.1697Y-3.1072
X4.1697Y-3.1473
X4.1697Y-3.1875
X4.1697Y-3.2276
X4.1697Y-3.2677
X4.1711Y-3.027
X4.1776Y-2.5906
X4.1776Y-2.7638
X4.1799Y-2.988
X4.1965Y-2.9515
X4.2079Y-2.496
X4.2137Y-2.4384
X4.2137Y-2.5419
X4.2179Y-2.5906
X4.2179Y-2.7638
X4.2202Y-2.9193
X4.2309Y-2.818
X4.25Y-2.8925
X4.2539Y-2.404
X4.2539Y-2.542
X4.2581Y-2.5906
X4.2581Y-2.7638
X4.2654Y-2.4902
X4.2846Y-2.8724
X4.2913Y-2.4126
X4.2984Y-2.5906
X4.2984Y-2.7638
X4.2999Y-2.45
X4.3172Y-2.5419
X4.3226Y-2.8597
X4.3229Y-2.818
X4.3387Y-2.5906
X4.3387Y-2.7638
X4.3429Y-3.0671
X4.3429Y-3.1072
X4.3429Y-3.1473
X4.3429Y-3.1875
X4.3429Y-3.2276
X4.3429Y-3.2677
X4.343Y-2.4643
X4.3459Y-2.404
X4.3542Y-3.0311
X4.3624Y-2.8551
X4.3789Y-2.5906
X4.3789Y-2.7638
X4.3919Y-2.45
X4.3919Y-3.071
X4.3934Y-2.7975
X4.3934Y-2.8369
X4.3938Y-3.0271
X4.3948Y-2.4126
X4.3948Y-2.5161
X4.4192Y-2.5906
X4.433Y-3.0185
X4.4379Y-2.404
X4.4465Y-2.4643
X4.4594Y-2.5906
X4.4695Y-3.0022
X4.4724Y-2.5419
X4.4839Y-2.45
X4.4839Y-3.048
X4.4983Y-2.4126
X4.4983Y-3.1112
X4.4983Y-3.2147
X4.4997Y-2.5906
X4.5019Y-2.9787
X4.5069Y-3.163
X4.5069Y-3.255
X4.5242Y-2.4902
X4.5289Y-2.949
X4.5299Y-2.542
X4.539Y-2.5906
X4.5492Y-2.9146
X4.55Y-3.1629
X4.55Y-3.2664
X4.5529Y-3.002
X4.5529Y-3.094
X4.5529Y-3.209
X4.5621Y-2.8766
X4.5669Y-2.7975
X4.5669Y-2.8369
X4.5759Y-2.4384
X4.5759Y-2.5419
X4.5759Y-2.496
X4.5784Y-2.5906
X4.5863Y-2.764
X4.5989Y-2.887
X4.5989Y-3.048
X4.5989Y-3.163
X4.5989Y-3.255
X4.6018Y-3.2147
X4.6178Y-2.5906
X4.6219Y-2.45
X4.6219Y-2.542
X4.6219Y-2.956
X4.6256Y-2.764
X4.6277Y-2.4902
X4.6277Y-2.8007
X4.6277Y-3.0077
X4.6277Y-3.1112
X4.6449Y-2.841
X4.6449Y-3.209
X4.6535Y-2.4126
X4.6535Y-2.8783
X4.6535Y-3.2664
X4.6571Y-2.5906
X4.665Y-2.764
X4.6679Y-2.496
X4.6679Y-3.002
X4.6679Y-3.117
X4.6794Y-2.5419
X4.6794Y-2.9559
X4.6794Y-3.0594
X4.6794Y-3.1629
X4.6909Y-2.404
X4.6909Y-3.255
X4.6965Y-2.5906
X4.7044Y-2.764
X4.7053Y-2.4643
X4.7106Y-2.801
X4.7106Y-2.8404
X4.7203Y-2.8795
X4.7311Y-3.0077
X4.7311Y-3.1112
X4.7311Y-3.2147
X4.7359Y-2.5906
X4.7369Y-3.048
X4.7369Y-3.163
X4.7435Y-2.9178
X4.757Y-2.4126
X4.757Y-2.5161
X4.7599Y-2.45
X4.7649Y-2.9525
X4.7829Y-3.0594
X4.7829Y-3.1629
X4.7829Y-3.2664
X4.7829Y-3.117
X4.7829Y-3.209
X4.7913Y-2.5906
X4.7929Y-2.982
X4.8059Y-2.404
X4.8088Y-2.4643
X4.8265Y-3.0051
X4.8289Y-3.048
X4.8316Y-2.5906
X4.8346Y-2.5419
X4.8519Y-2.45
X4.8605Y-2.4126
X4.8605Y-3.0853
X4.8642Y-3.0206
X4.8718Y-2.5906
X4.8749Y-2.542
X4.8864Y-2.4902
X4.8979Y-2.404
X4.8979Y-3.071
X4.8983Y-2.7996
X4.8983Y-2.8389
X4.9043Y-3.0279
X4.9121Y-2.5906
X4.9121Y-2.7638
X4.9315Y-2.8553
X4.9381Y-2.4384
X4.9381Y-2.5419
X4.9439Y-2.496
X4.9439Y-2.818
X4.9451Y-3.0296
X4.9524Y-2.5906
X4.9524Y-2.7638
X4.9604Y-3.0636
X4.9604Y-3.1044
X4.9604Y-3.1452
X4.9604Y-3.1861
X4.9604Y-3.2269
X4.9604Y-3.2677
X4.9722Y-2.8583
X4.9899Y-2.4902
X4.9899Y-2.8007
X4.9899Y-2.45
X4.9899Y-2.542
X4.9927Y-2.5906
X4.9927Y-2.7638
X5.0114Y-2.8694
X5.0158Y-2.4126
X5.033Y-2.5906
X5.033Y-2.7638
X5.0416Y-2.5419
X5.0475Y-2.8884
X5.0589Y-2.404
X5.0675Y-2.4643
X5.0675Y-2.8266
X5.0733Y-2.5906
X5.0733Y-2.7638
X5.0787Y-2.9146
X5.0819Y-2.519
X5.1038Y-2.9467
X5.1049Y-2.45
X5.1049Y-2.818
X5.1135Y-2.5906
X5.1135Y-2.7638
X5.1193Y-2.4126
X5.1193Y-2.5161
X5.1217Y-2.9833
X5.1279Y-2.887
X5.1337Y-3.1044
X5.1337Y-3.1452
X5.1337Y-3.1861
X5.1337Y-3.2269
X5.1337Y-3.2677
X5.1538Y-2.5906
X5.1538Y-2.7638
X5.171Y-2.9301
X5.171Y-3.0335
X5.1739Y-2.979
X5.1739Y-3.071
X5.1941Y-2.5906
X5.1941Y-2.7638
X5.1969Y-2.4384
X5.2199Y-2.933
X5.2199Y-3.025
X5.2228Y-2.9818
X5.2228Y-3.0853
X5.2344Y-2.5906
X5.2344Y-2.7638
X5.2659Y-2.979
X5.2659Y-3.071
X5.2745Y-2.4126
X5.2745Y-2.9301
X5.2745Y-3.0335
X5.2747Y-2.5906
X5.2747Y-2.7638
X5.2889Y-3.163
X5.2889Y-3.255
X5.3004Y-3.1112
X5.3004Y-3.2147
X5.3119Y-2.404
X5.3119Y-2.933
X5.3119Y-3.025
X5.315Y-2.5906
X5.315Y-2.7638
X5.3263Y-2.9818
X5.1693Y-2.5394
X5.1693Y-2.815
X5.2087Y-2.5394
X5.2087Y-2.815
X5.248Y-2.5394
X5.248Y-2.815
X5.2874Y-2.5394
X5.2874Y-2.815
X5.3268Y-2.5394
X5.3268Y-2.815
X4.1181Y-3.122
X4.1181Y-3.1614
X4.1181Y-3.2008
X4.1181Y-3.2402
X4.1181Y-3.2795
X4.3937Y-3.122
X4.3937Y-3.1614
X4.3937Y-3.2008
X4.3937Y-3.2402
X4.3937Y-3.2795
X3.9646Y-2.5394
X3.9646Y-2.815
X4.0039Y-2.5394
X4.0039Y-2.815
X4.0433Y-2.5394
X4.0433Y-2.815
X4.0827Y-2.5394
X4.0827Y-2.815
X4.122Y-2.5394
X4.122Y-2.815
X4.9094Y-3.122
X4.9094Y-3.1614
X4.9094Y-3.2008
X4.9094Y-3.2402
X4.9094Y-3.2795
X5.185Y-3.122
X5.185Y-3.1614
X5.185Y-3.2008
X5.185Y-3.2402
X5.185Y-3.2795
T0
M30
