<?xml version="1.0" encoding="UTF-8" standalone="no"?>
<svg xmlns="http://www.w3.org/2000/svg"
     xmlns:xlink="http://www.w3.org/1999/xlink"
     width="576pt" height="432pt" viewBox="0 0 576 432">
<title>gl2ps_renderer figure</title>
<desc>
Creator: GL2PS 1.4.1, (C) 1999-2017 C. Geuzaine
For: Octave
CreationDate: Wed Aug 14 10:23:09 2019
</desc>
<defs>
</defs>
<polygon fill="#ffffff" points="0,0 576,0 576,432 0,432"/>
<g>
<polygon fill="#ffffff" points="0,432 576,432 576,0 0,0" shape-rendering="crispEdges"/>
<clipPath id="cp00576432">
  <polygon points="0,432 576,432 576,0 0,0"/>
</clipPath>
<g clip-path="url(#cp00576432)">
<polygon fill="#ffffff" shape-rendering="crispEdges" points="74.8799,170.337 521.28,170.337 521.28,32.3999"/>
<polygon fill="#ffffff" shape-rendering="crispEdges" points="74.8799,170.337 521.28,32.3999 74.8799,32.3999"/>
<polyline fill="none" stroke="#262626" stroke-width="0.5" stroke-linecap="butt" stroke-linejoin="miter" stroke-opacity="0.15" stroke-dasharray="16,0" points="74.8799,170.337 74.8799,32.3999"/>
<polyline fill="none" stroke="#262626" stroke-width="0.5" stroke-linecap="butt" stroke-linejoin="miter" stroke-opacity="0.15" stroke-dasharray="16,0" points="164.16,170.337 164.16,32.3999"/>
<polyline fill="none" stroke="#262626" stroke-width="0.5" stroke-linecap="butt" stroke-linejoin="miter" stroke-opacity="0.15" stroke-dasharray="16,0" points="253.44,170.337 253.44,32.3999"/>
<polyline fill="none" stroke="#262626" stroke-width="0.5" stroke-linecap="butt" stroke-linejoin="miter" stroke-opacity="0.15" stroke-dasharray="16,0" points="342.72,170.337 342.72,32.3999"/>
<polyline fill="none" stroke="#262626" stroke-width="0.5" stroke-linecap="butt" stroke-linejoin="miter" stroke-opacity="0.15" stroke-dasharray="16,0" points="432,170.337 432,32.3999"/>
<polyline fill="none" stroke="#262626" stroke-width="0.5" stroke-linecap="butt" stroke-linejoin="miter" stroke-opacity="0.15" stroke-dasharray="16,0" points="521.28,170.337 521.28,32.3999"/>
<polyline fill="none" stroke="#262626" stroke-width="0.5" stroke-linecap="butt" stroke-linejoin="miter" points="74.8799,170.337 74.8799,165.875"/>
<polyline fill="none" stroke="#262626" stroke-width="0.5" stroke-linecap="butt" stroke-linejoin="miter" points="74.8799,32.3999 74.8799,36.8618"/>
<polyline fill="none" stroke="#262626" stroke-width="0.5" stroke-linecap="butt" stroke-linejoin="miter" points="164.16,170.337 164.16,165.875"/>
<polyline fill="none" stroke="#262626" stroke-width="0.5" stroke-linecap="butt" stroke-linejoin="miter" points="164.16,32.3999 164.16,36.8618"/>
<polyline fill="none" stroke="#262626" stroke-width="0.5" stroke-linecap="butt" stroke-linejoin="miter" points="253.44,170.337 253.44,165.875"/>
<polyline fill="none" stroke="#262626" stroke-width="0.5" stroke-linecap="butt" stroke-linejoin="miter" points="253.44,32.3999 253.44,36.8618"/>
<polyline fill="none" stroke="#262626" stroke-width="0.5" stroke-linecap="butt" stroke-linejoin="miter" points="342.72,170.337 342.72,165.875"/>
<polyline fill="none" stroke="#262626" stroke-width="0.5" stroke-linecap="butt" stroke-linejoin="miter" points="342.72,32.3999 342.72,36.8618"/>
<polyline fill="none" stroke="#262626" stroke-width="0.5" stroke-linecap="butt" stroke-linejoin="miter" points="432,170.337 432,165.875"/>
<polyline fill="none" stroke="#262626" stroke-width="0.5" stroke-linecap="butt" stroke-linejoin="miter" points="432,32.3999 432,36.8618"/>
<polyline fill="none" stroke="#262626" stroke-width="0.5" stroke-linecap="butt" stroke-linejoin="miter" points="521.28,170.337 521.28,165.875"/>
<polyline fill="none" stroke="#262626" stroke-width="0.5" stroke-linecap="butt" stroke-linejoin="miter" points="521.28,32.3999 521.28,36.8618"/>
<text xml:space="preserve" transform="translate(71.88,185.833) rotate(-0,3,-8)" font-family="FreeSans" font-weight="normal" font-style="normal" font-size="10"><tspan y="-0" fill="rgb(38,38,38)" x="0 ">0</tspan></text>
<text xml:space="preserve" transform="translate(156.66,185.833) rotate(-0,7.5,-8)" font-family="FreeSans" font-weight="normal" font-style="normal" font-size="10"><tspan y="-0" fill="rgb(38,38,38)" x="0 6 9 ">0.2</tspan></text>
<text xml:space="preserve" transform="translate(245.94,185.833) rotate(-0,7.5,-8)" font-family="FreeSans" font-weight="normal" font-style="normal" font-size="10"><tspan y="-0" fill="rgb(38,38,38)" x="0 6 9 ">0.4</tspan></text>
<text xml:space="preserve" transform="translate(335.22,185.833) rotate(-0,7.5,-8)" font-family="FreeSans" font-weight="normal" font-style="normal" font-size="10"><tspan y="-0" fill="rgb(38,38,38)" x="0 6 9 ">0.6</tspan></text>
<text xml:space="preserve" transform="translate(424.5,185.833) rotate(-0,7.5,-8)" font-family="FreeSans" font-weight="normal" font-style="normal" font-size="10"><tspan y="-0" fill="rgb(38,38,38)" x="0 6 9 ">0.8</tspan></text>
<text xml:space="preserve" transform="translate(518.28,185.833) rotate(-0,3,-8)" font-family="FreeSans" font-weight="normal" font-style="normal" font-size="10"><tspan y="-0" fill="rgb(38,38,38)" x="0 ">1</tspan></text>
<polyline fill="none" stroke="#262626" stroke-width="0.5" stroke-linecap="butt" stroke-linejoin="miter" stroke-opacity="0.15" stroke-dasharray="16,0" points="74.8799,170.337 521.28,170.337"/>
<polyline fill="none" stroke="#262626" stroke-width="0.5" stroke-linecap="butt" stroke-linejoin="miter" stroke-opacity="0.15" stroke-dasharray="16,0" points="74.8799,147.347 521.28,147.347"/>
<polyline fill="none" stroke="#262626" stroke-width="0.5" stroke-linecap="butt" stroke-linejoin="miter" stroke-opacity="0.15" stroke-dasharray="16,0" points="74.8799,124.358 521.28,124.358"/>
<polyline fill="none" stroke="#262626" stroke-width="0.5" stroke-linecap="butt" stroke-linejoin="miter" stroke-opacity="0.15" stroke-dasharray="16,0" points="74.8799,101.369 521.28,101.369"/>
<polyline fill="none" stroke="#262626" stroke-width="0.5" stroke-linecap="butt" stroke-linejoin="miter" stroke-opacity="0.15" stroke-dasharray="16,0" points="74.8799,78.3789 521.28,78.3789"/>
<polyline fill="none" stroke="#262626" stroke-width="0.5" stroke-linecap="butt" stroke-linejoin="miter" stroke-opacity="0.15" stroke-dasharray="16,0" points="74.8799,55.3896 521.28,55.3896"/>
<polyline fill="none" stroke="#262626" stroke-width="0.5" stroke-linecap="butt" stroke-linejoin="miter" stroke-opacity="0.15" stroke-dasharray="16,0" points="74.8799,32.3999 521.28,32.3999"/>
<polyline fill="none" stroke="#262626" stroke-width="0.5" stroke-linecap="butt" stroke-linejoin="miter" points="74.8799,170.337 79.3481,170.337"/>
<polyline fill="none" stroke="#262626" stroke-width="0.5" stroke-linecap="butt" stroke-linejoin="miter" points="521.28,170.337 516.812,170.337"/>
<polyline fill="none" stroke="#262626" stroke-width="0.5" stroke-linecap="butt" stroke-linejoin="miter" points="74.8799,147.347 79.3481,147.347"/>
<polyline fill="none" stroke="#262626" stroke-width="0.5" stroke-linecap="butt" stroke-linejoin="miter" points="521.28,147.347 516.812,147.347"/>
<polyline fill="none" stroke="#262626" stroke-width="0.5" stroke-linecap="butt" stroke-linejoin="miter" points="74.8799,124.358 79.3481,124.358"/>
<polyline fill="none" stroke="#262626" stroke-width="0.5" stroke-linecap="butt" stroke-linejoin="miter" points="521.28,124.358 516.812,124.358"/>
<polyline fill="none" stroke="#262626" stroke-width="0.5" stroke-linecap="butt" stroke-linejoin="miter" points="74.8799,101.369 79.3481,101.369"/>
<polyline fill="none" stroke="#262626" stroke-width="0.5" stroke-linecap="butt" stroke-linejoin="miter" points="521.28,101.369 516.812,101.369"/>
<polyline fill="none" stroke="#262626" stroke-width="0.5" stroke-linecap="butt" stroke-linejoin="miter" points="74.8799,78.3789 79.3481,78.3789"/>
<polyline fill="none" stroke="#262626" stroke-width="0.5" stroke-linecap="butt" stroke-linejoin="miter" points="521.28,78.3789 516.812,78.3789"/>
<polyline fill="none" stroke="#262626" stroke-width="0.5" stroke-linecap="butt" stroke-linejoin="miter" points="74.8799,55.3896 79.3481,55.3896"/>
<polyline fill="none" stroke="#262626" stroke-width="0.5" stroke-linecap="butt" stroke-linejoin="miter" points="521.28,55.3896 516.812,55.3896"/>
<polyline fill="none" stroke="#262626" stroke-width="0.5" stroke-linecap="butt" stroke-linejoin="miter" points="74.8799,32.3999 79.3481,32.3999"/>
<polyline fill="none" stroke="#262626" stroke-width="0.5" stroke-linecap="butt" stroke-linejoin="miter" points="521.28,32.3999 516.812,32.3999"/>
<text xml:space="preserve" transform="translate(48.8755,174.337) rotate(-0,21,-4)" font-family="FreeSans" font-weight="normal" font-style="normal" font-size="10"><tspan y="-0" fill="rgb(38,38,38)" x="0 3 9 15 ">-100</tspan></text>
<text xml:space="preserve" transform="translate(54.8755,151.347) rotate(-0,15,-4)" font-family="FreeSans" font-weight="normal" font-style="normal" font-size="10"><tspan y="-0" fill="rgb(38,38,38)" x="0 3 9 ">-80</tspan></text>
<text xml:space="preserve" transform="translate(54.8755,128.358) rotate(-0,15,-4)" font-family="FreeSans" font-weight="normal" font-style="normal" font-size="10"><tspan y="-0" fill="rgb(38,38,38)" x="0 3 9 ">-60</tspan></text>
<text xml:space="preserve" transform="translate(54.8755,105.368) rotate(-0,15,-4)" font-family="FreeSans" font-weight="normal" font-style="normal" font-size="10"><tspan y="-0" fill="rgb(38,38,38)" x="0 3 9 ">-40</tspan></text>
<text xml:space="preserve" transform="translate(54.8755,82.3789) rotate(-0,15,-4)" font-family="FreeSans" font-weight="normal" font-style="normal" font-size="10"><tspan y="-0" fill="rgb(38,38,38)" x="0 3 9 ">-20</tspan></text>
<text xml:space="preserve" transform="translate(63.8755,59.3895) rotate(-0,6,-4)" font-family="FreeSans" font-weight="normal" font-style="normal" font-size="10"><tspan y="-0" fill="rgb(38,38,38)" x="0 ">0</tspan></text>
<text xml:space="preserve" transform="translate(57.8755,36.4) rotate(-0,12,-4)" font-family="FreeSans" font-weight="normal" font-style="normal" font-size="10"><tspan y="-0" fill="rgb(38,38,38)" x="0 6 ">20</tspan></text>
<polyline fill="none" stroke="#262626" stroke-width="0.5" stroke-linecap="square" stroke-linejoin="miter" stroke-dasharray="16,0" points="74.8799,170.337 521.28,170.337"/>
<polyline fill="none" stroke="#262626" stroke-width="0.5" stroke-linecap="square" stroke-linejoin="miter" stroke-dasharray="16,0" points="74.8799,32.3999 521.28,32.3999"/>
<polyline fill="none" stroke="#262626" stroke-width="0.5" stroke-linecap="square" stroke-linejoin="miter" stroke-dasharray="16,0" points="74.8799,170.337 74.8799,32.3999"/>
<polyline fill="none" stroke="#262626" stroke-width="0.5" stroke-linecap="square" stroke-linejoin="miter" stroke-dasharray="16,0" points="521.28,170.337 521.28,32.3999"/>
<text xml:space="preserve" transform="translate(6.87552,101.368) rotate(-90,37,0)" font-family="FreeSans" font-weight="normal" font-style="normal" font-size="11"><tspan y="-3" fill="rgb(38,38,38)" x="0 9 15 21 27 29 32 38 44 50 53 57 63 70 ">Magnitude (dB)</tspan></text>
<text xml:space="preserve" transform="translate(203.58,202.833) rotate(-0,94.5,-12)" font-family="FreeSans" font-weight="normal" font-style="normal" font-size="11"><tspan y="-3" fill="rgb(38,38,38)" x="0 8 14 18 27 33 35 37 42 48 54 57 64 68 74 80 86 92 98 104 109 112 ">Normalized Frequency (</tspan><tspan y="-3" fill="rgb(38,38,38)" x="116 ">&#215;</tspan><tspan y="-3" fill="rgb(38,38,38)" x="122 ">&#960;</tspan><tspan y="-3" fill="rgb(38,38,38)" x="129 132 136 142 148 151 156 162 171 177 179 185 "> rad/sample)</tspan></text>
<polyline fill="none" stroke="#0071bc" stroke-width="0.5" stroke-linecap="butt" stroke-linejoin="round" points="74.8799,56.0786 75.752,56.0859 76.6235,56.1055 77.4956,56.1309 78.3677,56.1509 79.2393,56.1538 80.1113,56.127 80.9829,56.061 81.855,55.9521 82.7271,55.8008 83.5986,55.6157 84.4707,55.4097 85.3423,55.2002 86.2144,55.0054 87.0864,54.8438 87.958,54.731 88.8301,54.6787 89.7017,54.6943 90.5737,54.7783 91.4458,54.9268 92.3174,55.127 93.1895,55.3623 94.061,55.6084 94.9331,55.8369 95.8052,56.02 96.6768,56.1309 97.5488,56.1523 98.4204,56.0776 99.2925,55.9155 100.165,55.686 101.036,55.4194 101.908,55.1499 102.78,54.9146 103.652,54.7476 104.524,54.6787 105.396,54.7354 106.268,54.9399 107.139,55.3135 108.011,55.874 108.883,56.6406 109.755,57.6309 110.627,58.8652 111.499,60.3687 112.371,62.1704 113.243,64.3081 114.114,66.833 114.986,69.8169 115.858,73.3682 116.73,77.6621 117.602,83.0186 118.474,90.1597 119.346,101.576 120.217,118.131 121.089,105.758 121.961,106.146 122.833,112.621 123.705,128.825 124.577,110.293 125.449,106.049 126.321,105.263 127.192,107.016 128.064,112.249 128.936,133.799 129.808,114.786 130.68,108.195 131.552,105.675 132.424,105.322 133.295,106.893 134.167,111.118 135.04,122.988 135.911,119.371 136.783,110.153 137.655,106.553 138.527,105.261 139.399,105.672 140.271,107.916 141.143,113.16 142.014,131.736 142.886,116.587 143.758,109.37 144.63,106.304 145.502,105.25 146.374,105.78 147.246,108.069 148.118,113.286 148.989,131.213 149.861,116.975 150.733,109.611 151.605,106.44 152.477,105.26 153.349,105.611 154.221,107.604 155.092,112.145 155.964,124.822 156.836,119.526 157.708,110.612 158.58,106.929 159.452,105.404 160.324,105.417 161.196,106.966 162.067,110.668 162.939,119.58 163.811,124.982 164.683,112.262 165.555,107.701 166.427,105.667 167.299,105.239 168.17,106.27 169.042,109.122 169.915,115.459 170.786,152.272 171.658,115.016 172.53,108.951 173.402,106.212 174.274,105.255 175.146,105.741 176.018,107.828 176.889,112.455 177.761,125.449 178.633,119.515 179.505,110.718 180.377,107.026 181.249,105.448 182.121,105.365 182.993,106.748 183.864,110.112 184.736,117.823 185.608,129.771 186.48,113.364 187.352,108.245 188.224,105.904 189.096,105.208 189.967,105.925 190.839,108.291 191.711,113.458 192.583,130.258 193.455,117.703 194.327,110.069 195.199,106.721 196.071,105.335 196.942,105.398 197.814,106.93 198.686,110.511 199.558,118.867 200.43,126.97 201.302,112.848 202.174,108.026 203.045,105.819 203.917,105.213 204.79,106.008 205.661,108.466 206.533,113.811 207.405,132.291 208.277,117.276 209.149,109.933 210.021,106.678 210.893,105.345 211.764,105.446 212.636,107.014 213.508,110.646 214.38,119.158 215.252,126.484 216.124,112.776 216.996,108.011 217.868,105.827 218.739,105.229 219.611,106.026 220.483,108.478 221.355,113.797 222.227,131.979 223.099,117.388 223.971,109.995 224.842,106.717 225.714,105.363 226.586,105.44 227.458,106.972 228.33,110.536 229.202,118.808 230.074,127.374 230.946,112.99 231.817,108.119 232.689,105.877 233.561,105.231 234.433,105.973 235.305,108.343 236.177,113.478 237.049,129.879 237.92,117.95 238.792,110.222 239.665,106.829 240.536,105.398 241.408,105.404 242.28,106.847 243.152,110.259 244.024,118.042 244.896,129.604 245.768,113.436 246.639,108.328 247.511,105.968 248.383,105.231 249.255,105.878 250.127,108.115 250.999,112.967 251.871,127.195 252.743,118.915 253.614,110.588 254.486,107.003 255.358,105.453 256.23,105.353 257.102,106.671 257.974,109.879 258.846,117.055 259.717,133.887 260.589,114.089 261.461,108.625 262.333,106.098 263.205,105.237 264.077,105.76 264.949,107.83 265.821,112.347 266.692,124.557 267.564,120.306 268.436,111.079 269.308,107.235 270.18,105.53 271.052,105.298 271.924,106.467 272.795,109.441 273.667,115.978 274.54,144.406 275.411,114.951 276.283,109.003 277.155,106.265 278.027,105.254 278.899,105.631 279.771,107.514 280.643,111.673 281.514,122.16 282.386,122.24 283.258,111.696 284.13,107.522 285.002,105.632 285.874,105.247 286.746,106.249 287.618,108.972 288.489,114.882 289.361,143.114 290.233,116.049 291.105,109.466 291.977,106.472 292.849,105.287 293.721,105.501 294.592,107.18 295.464,110.976 296.336,120.017 297.208,125.008 298.08,112.455 298.952,107.871 299.824,105.762 300.696,105.204 301.567,106.022 302.439,108.482 303.311,113.79 304.183,131.76 305.055,117.474 305.927,110.037 306.799,106.732 307.67,105.346 308.542,105.378 309.415,106.839 310.286,110.264 311.158,118.058 312.03,129.574 312.902,113.436 313.774,108.325 314.646,105.958 315.518,105.206 316.389,105.828 317.261,108.02 318.133,112.766 319.005,126.265 319.877,119.357 320.749,110.753 321.621,107.08 322.493,105.472 323.364,105.314 324.236,106.559 325.108,109.64 325.98,116.45 326.852,138.44 327.724,114.579 328.596,108.848 329.467,106.199 330.339,105.247 331.211,105.673 332.083,107.612 332.955,111.869 333.827,122.771 334.699,121.706 335.571,111.549 336.442,107.465 337.314,105.62 338.186,105.269 339.058,106.301 339.93,109.064 340.802,115.061 341.674,146.25 342.545,115.918 343.417,109.431 344.29,106.472 345.161,105.308 346.033,105.538 346.905,107.231 347.777,111.048 348.649,120.156 349.521,124.89 350.393,112.457 351.264,107.895 352.136,105.795 353.008,105.243 353.88,106.064 354.752,108.526 355.624,113.833 356.496,131.783 357.368,117.528 358.239,110.087 359.111,106.78 359.983,105.392 360.855,105.42 361.727,106.876 362.599,110.291 363.471,118.056 364.342,129.774 365.214,113.505 366.086,108.377 366.958,105.999 367.83,105.237 368.702,105.848 369.574,108.022 370.446,112.731 371.317,126.008 372.189,119.531 373.061,110.832 373.933,107.128 374.805,105.5 375.677,105.323 376.549,106.544 377.42,109.588 378.292,116.294 379.165,140.298 380.036,114.736 380.908,108.922 381.78,106.235 382.652,105.253 383.524,105.65 384.396,107.548 385.268,111.729 386.139,122.289 387.011,122.163 387.883,111.688 388.755,107.525 389.627,105.635 390.499,105.244 391.371,106.231 392.243,108.927 393.114,114.761 393.986,140.834 394.858,116.23 395.73,109.548 396.602,106.511 397.474,105.292 398.346,105.468 399.217,107.094 400.089,110.789 400.961,119.458 401.833,126.076 402.705,112.726 403.577,108.002 404.449,105.818 405.321,105.198 406.192,105.947 407.064,108.303 407.936,113.377 408.808,129.184 409.68,118.21 410.552,110.336 411.424,106.886 412.295,105.407 413.167,105.355 414.04,106.715 414.911,109.973 415.783,117.264 416.655,132.953 417.527,113.993 418.399,108.592 419.271,106.087 420.143,105.232 421.014,105.75 421.886,107.802 422.758,112.267 423.63,124.165 424.502,120.629 425.374,111.209 426.246,107.308 427.118,105.564 427.989,105.291 428.861,106.404 429.733,109.284 430.605,115.562 431.477,164.001 432.349,115.418 433.221,109.225 434.092,106.379 434.964,105.289 435.836,105.584 436.708,107.354 437.58,111.302 438.452,120.895 439.324,123.816 440.196,112.181 441.067,107.769 441.939,105.746 442.811,105.25 443.683,106.127 444.555,108.664 445.427,114.133 446.299,133.912 447.17,117.107 448.042,109.924 448.915,106.705 449.786,105.37 450.658,105.443 451.53,106.948 452.402,110.441 453.274,118.446 454.146,128.59 455.018,113.289 455.889,108.279 456.761,105.956 457.633,105.232 458.505,105.877 459.377,108.097 460.249,112.893 461.121,126.707 461.993,119.195 462.864,110.711 463.736,107.07 464.608,105.475 465.48,105.325 466.352,106.574 467.224,109.658 468.096,116.468 468.967,138.432 469.839,114.588 470.711,108.854 471.583,106.199 472.455,105.237 473.327,105.651 474.199,107.569 475.071,111.782 475.942,122.482 476.814,121.964 477.686,111.621 478.558,107.487 479.43,105.61 480.302,105.228 481.174,106.22 482.045,108.919 482.917,114.755 483.79,140.79 484.661,116.235 485.533,109.552 486.405,106.514 487.277,105.294 488.149,105.469 489.021,107.091 489.893,110.778 490.764,119.411 491.636,126.208 492.508,112.769 493.38,108.032 494.252,105.842 495.124,105.218 495.996,105.962 496.868,108.313 497.739,113.377 498.611,129.099 499.483,118.262 500.355,110.367 501.227,106.908 502.099,105.424 502.971,105.368 503.842,106.722 504.714,109.97 505.586,117.233 506.458,133.203 507.33,114.039 508.202,108.62 509.074,106.105 509.946,105.244 510.817,105.754 511.689,107.796 512.561,112.241 513.433,124.039 514.305,120.736 515.177,111.251 516.049,107.332 516.92,105.577 517.792,105.294 518.665,106.397 519.536,109.26 520.408,115.496"/>
</g>
<clipPath id="cp00576432">
  <polygon points="0,432 576,432 576,0 0,0"/>
</clipPath>
<g clip-path="url(#cp00576432)">
<polygon fill="#ffffff" shape-rendering="crispEdges" points="74.8799,384.48 521.28,384.48 521.28,246.543"/>
<polygon fill="#ffffff" shape-rendering="crispEdges" points="74.8799,384.48 521.28,246.543 74.8799,246.543"/>
<polyline fill="none" stroke="#262626" stroke-width="0.5" stroke-linecap="butt" stroke-linejoin="miter" stroke-opacity="0.15" stroke-dasharray="16,0" points="74.8799,384.48 74.8799,246.543"/>
<polyline fill="none" stroke="#262626" stroke-width="0.5" stroke-linecap="butt" stroke-linejoin="miter" stroke-opacity="0.15" stroke-dasharray="16,0" points="164.16,384.48 164.16,246.543"/>
<polyline fill="none" stroke="#262626" stroke-width="0.5" stroke-linecap="butt" stroke-linejoin="miter" stroke-opacity="0.15" stroke-dasharray="16,0" points="253.44,384.48 253.44,246.543"/>
<polyline fill="none" stroke="#262626" stroke-width="0.5" stroke-linecap="butt" stroke-linejoin="miter" stroke-opacity="0.15" stroke-dasharray="16,0" points="342.72,384.48 342.72,246.543"/>
<polyline fill="none" stroke="#262626" stroke-width="0.5" stroke-linecap="butt" stroke-linejoin="miter" stroke-opacity="0.15" stroke-dasharray="16,0" points="432,384.48 432,246.543"/>
<polyline fill="none" stroke="#262626" stroke-width="0.5" stroke-linecap="butt" stroke-linejoin="miter" stroke-opacity="0.15" stroke-dasharray="16,0" points="521.28,384.48 521.28,246.543"/>
<polyline fill="none" stroke="#262626" stroke-width="0.5" stroke-linecap="butt" stroke-linejoin="miter" points="74.8799,384.48 74.8799,380.018"/>
<polyline fill="none" stroke="#262626" stroke-width="0.5" stroke-linecap="butt" stroke-linejoin="miter" points="74.8799,246.543 74.8799,251.005"/>
<polyline fill="none" stroke="#262626" stroke-width="0.5" stroke-linecap="butt" stroke-linejoin="miter" points="164.16,384.48 164.16,380.018"/>
<polyline fill="none" stroke="#262626" stroke-width="0.5" stroke-linecap="butt" stroke-linejoin="miter" points="164.16,246.543 164.16,251.005"/>
<polyline fill="none" stroke="#262626" stroke-width="0.5" stroke-linecap="butt" stroke-linejoin="miter" points="253.44,384.48 253.44,380.018"/>
<polyline fill="none" stroke="#262626" stroke-width="0.5" stroke-linecap="butt" stroke-linejoin="miter" points="253.44,246.543 253.44,251.005"/>
<polyline fill="none" stroke="#262626" stroke-width="0.5" stroke-linecap="butt" stroke-linejoin="miter" points="342.72,384.48 342.72,380.018"/>
<polyline fill="none" stroke="#262626" stroke-width="0.5" stroke-linecap="butt" stroke-linejoin="miter" points="342.72,246.543 342.72,251.005"/>
<polyline fill="none" stroke="#262626" stroke-width="0.5" stroke-linecap="butt" stroke-linejoin="miter" points="432,384.48 432,380.018"/>
<polyline fill="none" stroke="#262626" stroke-width="0.5" stroke-linecap="butt" stroke-linejoin="miter" points="432,246.543 432,251.005"/>
<polyline fill="none" stroke="#262626" stroke-width="0.5" stroke-linecap="butt" stroke-linejoin="miter" points="521.28,384.48 521.28,380.018"/>
<polyline fill="none" stroke="#262626" stroke-width="0.5" stroke-linecap="butt" stroke-linejoin="miter" points="521.28,246.543 521.28,251.005"/>
<text xml:space="preserve" transform="translate(71.88,399.977) rotate(-0,3,-8)" font-family="FreeSans" font-weight="normal" font-style="normal" font-size="10"><tspan y="-0" fill="rgb(38,38,38)" x="0 ">0</tspan></text>
<text xml:space="preserve" transform="translate(156.66,399.977) rotate(-0,7.5,-8)" font-family="FreeSans" font-weight="normal" font-style="normal" font-size="10"><tspan y="-0" fill="rgb(38,38,38)" x="0 6 9 ">0.2</tspan></text>
<text xml:space="preserve" transform="translate(245.94,399.977) rotate(-0,7.5,-8)" font-family="FreeSans" font-weight="normal" font-style="normal" font-size="10"><tspan y="-0" fill="rgb(38,38,38)" x="0 6 9 ">0.4</tspan></text>
<text xml:space="preserve" transform="translate(335.22,399.977) rotate(-0,7.5,-8)" font-family="FreeSans" font-weight="normal" font-style="normal" font-size="10"><tspan y="-0" fill="rgb(38,38,38)" x="0 6 9 ">0.6</tspan></text>
<text xml:space="preserve" transform="translate(424.5,399.977) rotate(-0,7.5,-8)" font-family="FreeSans" font-weight="normal" font-style="normal" font-size="10"><tspan y="-0" fill="rgb(38,38,38)" x="0 6 9 ">0.8</tspan></text>
<text xml:space="preserve" transform="translate(518.28,399.977) rotate(-0,3,-8)" font-family="FreeSans" font-weight="normal" font-style="normal" font-size="10"><tspan y="-0" fill="rgb(38,38,38)" x="0 ">1</tspan></text>
<polyline fill="none" stroke="#262626" stroke-width="0.5" stroke-linecap="butt" stroke-linejoin="miter" stroke-opacity="0.15" stroke-dasharray="16,0" points="74.8799,384.48 521.28,384.48"/>
<polyline fill="none" stroke="#262626" stroke-width="0.5" stroke-linecap="butt" stroke-linejoin="miter" stroke-opacity="0.15" stroke-dasharray="16,0" points="74.8799,361.491 521.28,361.491"/>
<polyline fill="none" stroke="#262626" stroke-width="0.5" stroke-linecap="butt" stroke-linejoin="miter" stroke-opacity="0.15" stroke-dasharray="16,0" points="74.8799,338.501 521.28,338.501"/>
<polyline fill="none" stroke="#262626" stroke-width="0.5" stroke-linecap="butt" stroke-linejoin="miter" stroke-opacity="0.15" stroke-dasharray="16,0" points="74.8799,315.512 521.28,315.512"/>
<polyline fill="none" stroke="#262626" stroke-width="0.5" stroke-linecap="butt" stroke-linejoin="miter" stroke-opacity="0.15" stroke-dasharray="16,0" points="74.8799,292.522 521.28,292.522"/>
<polyline fill="none" stroke="#262626" stroke-width="0.5" stroke-linecap="butt" stroke-linejoin="miter" stroke-opacity="0.15" stroke-dasharray="16,0" points="74.8799,269.533 521.28,269.533"/>
<polyline fill="none" stroke="#262626" stroke-width="0.5" stroke-linecap="butt" stroke-linejoin="miter" stroke-opacity="0.15" stroke-dasharray="16,0" points="74.8799,246.543 521.28,246.543"/>
<polyline fill="none" stroke="#262626" stroke-width="0.5" stroke-linecap="butt" stroke-linejoin="miter" points="74.8799,384.48 79.3481,384.48"/>
<polyline fill="none" stroke="#262626" stroke-width="0.5" stroke-linecap="butt" stroke-linejoin="miter" points="521.28,384.48 516.812,384.48"/>
<polyline fill="none" stroke="#262626" stroke-width="0.5" stroke-linecap="butt" stroke-linejoin="miter" points="74.8799,361.491 79.3481,361.491"/>
<polyline fill="none" stroke="#262626" stroke-width="0.5" stroke-linecap="butt" stroke-linejoin="miter" points="521.28,361.491 516.812,361.491"/>
<polyline fill="none" stroke="#262626" stroke-width="0.5" stroke-linecap="butt" stroke-linejoin="miter" points="74.8799,338.501 79.3481,338.501"/>
<polyline fill="none" stroke="#262626" stroke-width="0.5" stroke-linecap="butt" stroke-linejoin="miter" points="521.28,338.501 516.812,338.501"/>
<polyline fill="none" stroke="#262626" stroke-width="0.5" stroke-linecap="butt" stroke-linejoin="miter" points="74.8799,315.512 79.3481,315.512"/>
<polyline fill="none" stroke="#262626" stroke-width="0.5" stroke-linecap="butt" stroke-linejoin="miter" points="521.28,315.512 516.812,315.512"/>
<polyline fill="none" stroke="#262626" stroke-width="0.5" stroke-linecap="butt" stroke-linejoin="miter" points="74.8799,292.522 79.3481,292.522"/>
<polyline fill="none" stroke="#262626" stroke-width="0.5" stroke-linecap="butt" stroke-linejoin="miter" points="521.28,292.522 516.812,292.522"/>
<polyline fill="none" stroke="#262626" stroke-width="0.5" stroke-linecap="butt" stroke-linejoin="miter" points="74.8799,269.533 79.3481,269.533"/>
<polyline fill="none" stroke="#262626" stroke-width="0.5" stroke-linecap="butt" stroke-linejoin="miter" points="521.28,269.533 516.812,269.533"/>
<polyline fill="none" stroke="#262626" stroke-width="0.5" stroke-linecap="butt" stroke-linejoin="miter" points="74.8799,246.543 79.3481,246.543"/>
<polyline fill="none" stroke="#262626" stroke-width="0.5" stroke-linecap="butt" stroke-linejoin="miter" points="521.28,246.543 516.812,246.543"/>
<text xml:space="preserve" transform="translate(42.8755,388.48) rotate(-0,27,-4)" font-family="FreeSans" font-weight="normal" font-style="normal" font-size="10"><tspan y="-0" fill="rgb(38,38,38)" x="0 3 9 15 21 ">-1200</tspan></text>
<text xml:space="preserve" transform="translate(42.8755,365.491) rotate(-0,27,-4)" font-family="FreeSans" font-weight="normal" font-style="normal" font-size="10"><tspan y="-0" fill="rgb(38,38,38)" x="0 3 9 15 21 ">-1000</tspan></text>
<text xml:space="preserve" transform="translate(48.8755,342.501) rotate(-0,21,-4)" font-family="FreeSans" font-weight="normal" font-style="normal" font-size="10"><tspan y="-0" fill="rgb(38,38,38)" x="0 3 9 15 ">-800</tspan></text>
<text xml:space="preserve" transform="translate(48.8755,319.512) rotate(-0,21,-4)" font-family="FreeSans" font-weight="normal" font-style="normal" font-size="10"><tspan y="-0" fill="rgb(38,38,38)" x="0 3 9 15 ">-600</tspan></text>
<text xml:space="preserve" transform="translate(48.8755,296.522) rotate(-0,21,-4)" font-family="FreeSans" font-weight="normal" font-style="normal" font-size="10"><tspan y="-0" fill="rgb(38,38,38)" x="0 3 9 15 ">-400</tspan></text>
<text xml:space="preserve" transform="translate(48.8755,273.533) rotate(-0,21,-4)" font-family="FreeSans" font-weight="normal" font-style="normal" font-size="10"><tspan y="-0" fill="rgb(38,38,38)" x="0 3 9 15 ">-200</tspan></text>
<text xml:space="preserve" transform="translate(63.8755,250.543) rotate(-0,6,-4)" font-family="FreeSans" font-weight="normal" font-style="normal" font-size="10"><tspan y="-0" fill="rgb(38,38,38)" x="0 ">0</tspan></text>
<polyline fill="none" stroke="#262626" stroke-width="0.5" stroke-linecap="square" stroke-linejoin="miter" stroke-dasharray="16,0" points="74.8799,384.48 521.28,384.48"/>
<polyline fill="none" stroke="#262626" stroke-width="0.5" stroke-linecap="square" stroke-linejoin="miter" stroke-dasharray="16,0" points="74.8799,246.543 521.28,246.543"/>
<polyline fill="none" stroke="#262626" stroke-width="0.5" stroke-linecap="square" stroke-linejoin="miter" stroke-dasharray="16,0" points="74.8799,384.48 74.8799,246.543"/>
<polyline fill="none" stroke="#262626" stroke-width="0.5" stroke-linecap="square" stroke-linejoin="miter" stroke-dasharray="16,0" points="521.28,384.48 521.28,246.543"/>
<text xml:space="preserve" transform="translate(-2.12448,315.512) rotate(-90,40,0)" font-family="FreeSans" font-weight="normal" font-style="normal" font-size="11"><tspan y="-3" fill="rgb(38,38,38)" x="0 7 13 19 24 30 33 37 43 49 55 59 65 71 76 ">Phase (degrees)</tspan></text>
<text xml:space="preserve" transform="translate(203.58,416.977) rotate(-0,94.5,-12)" font-family="FreeSans" font-weight="normal" font-style="normal" font-size="11"><tspan y="-3" fill="rgb(38,38,38)" x="0 8 14 18 27 33 35 37 42 48 54 57 64 68 74 80 86 92 98 104 109 112 ">Normalized Frequency (</tspan><tspan y="-3" fill="rgb(38,38,38)" x="116 ">&#215;</tspan><tspan y="-3" fill="rgb(38,38,38)" x="122 ">&#960;</tspan><tspan y="-3" fill="rgb(38,38,38)" x="129 132 136 142 148 151 156 162 171 177 179 185 "> rad/sample)</tspan></text>
<polyline fill="none" stroke="#0071bc" stroke-width="0.5" stroke-linecap="butt" stroke-linejoin="round" points="74.8799,246.543 75.752,248.948 76.6235,251.352 77.4956,253.756 78.3677,256.161 79.2393,258.565 80.1113,260.97 80.9829,263.375 81.855,265.779 82.7271,268.184 83.5986,270.588 84.4707,272.992 85.3423,275.397 86.2144,277.801 87.0864,280.206 87.958,282.61 88.8301,285.015 89.7017,287.419 90.5737,289.824 91.4458,292.228 92.3174,294.632 93.1895,297.037 94.061,299.441 94.9331,301.846 95.8052,304.25 96.6768,306.655 97.5488,309.059 98.4204,311.464 99.2925,313.868 100.165,316.272 101.036,318.677 101.908,321.082 102.78,323.486 103.652,325.891 104.524,328.295 105.396,330.7 106.268,333.104 107.139,335.508 108.011,337.913 108.883,340.317 109.755,342.722 110.627,345.126 111.499,347.531 112.371,349.935 113.243,352.34 114.114,354.744 114.986,357.148 115.858,359.553 116.73,361.958 117.602,364.362 118.474,366.767 119.346,369.171 120.217,350.885 121.089,353.29 121.961,355.694 122.833,358.098 123.705,339.812 124.577,342.217 125.449,344.621 126.321,347.025 127.192,349.43 128.064,351.834 128.936,354.239 129.808,335.953 130.68,338.357 131.552,340.762 132.424,343.167 133.295,345.571 134.167,347.975 135.04,350.38 135.911,332.094 136.783,334.498 137.655,336.903 138.527,339.307 139.399,341.711 140.271,344.116 141.143,346.521 142.014,348.925 142.886,330.639 143.758,333.043 144.63,335.448 145.502,337.852 146.374,340.257 147.246,342.661 148.118,345.065 148.989,347.47 149.861,329.184 150.733,331.588 151.605,333.993 152.477,336.397 153.349,338.802 154.221,341.207 155.092,343.611 155.964,346.015 156.836,327.729 157.708,330.134 158.58,332.538 159.452,334.943 160.324,337.347 161.196,339.751 162.067,342.156 162.939,344.561 163.811,326.274 164.683,328.679 165.555,331.083 166.427,333.488 167.299,335.892 168.17,338.297 169.042,340.701 169.915,343.105 170.786,324.82 171.658,327.224 172.53,329.628 173.402,332.033 174.274,334.438 175.146,336.842 176.018,339.247 176.889,341.651 177.761,344.055 178.633,325.77 179.505,328.174 180.377,330.578 181.249,332.983 182.121,335.387 182.993,337.792 183.864,340.196 184.736,342.601 185.608,324.314 186.48,326.719 187.352,329.124 188.224,331.528 189.096,333.932 189.967,336.337 190.839,338.741 191.711,341.146 192.583,343.55 193.455,325.264 194.327,327.668 195.199,330.073 196.071,332.478 196.942,334.882 197.814,337.287 198.686,339.691 199.558,342.095 200.43,323.81 201.302,326.214 202.174,328.618 203.045,331.023 203.917,333.427 204.79,335.832 205.661,338.236 206.533,340.641 207.405,343.045 208.277,324.759 209.149,327.164 210.021,329.568 210.893,331.973 211.764,334.377 212.636,336.781 213.508,339.186 214.38,341.59 215.252,323.304 216.124,325.708 216.996,328.113 217.868,330.518 218.739,332.922 219.611,335.327 220.483,337.731 221.355,340.135 222.227,342.54 223.099,324.254 223.971,326.658 224.842,329.063 225.714,331.467 226.586,333.872 227.458,336.276 228.33,338.681 229.202,341.085 230.074,322.799 230.946,325.204 231.817,327.608 232.689,330.013 233.561,332.417 234.433,334.821 235.305,337.226 236.177,339.63 237.049,342.035 237.92,323.749 238.792,326.153 239.665,328.558 240.536,330.962 241.408,333.367 242.28,335.771 243.152,338.175 244.024,340.58 244.896,322.294 245.768,324.698 246.639,327.103 247.511,329.507 248.383,331.912 249.255,334.316 250.127,336.721 250.999,339.125 251.871,341.53 252.743,323.244 253.614,325.648 254.486,328.053 255.358,330.457 256.23,332.861 257.102,335.266 257.974,337.67 258.846,340.075 259.717,321.789 260.589,324.193 261.461,326.598 262.333,329.002 263.205,331.407 264.077,333.811 264.949,336.216 265.821,338.62 266.692,341.024 267.564,322.738 268.436,325.143 269.308,327.547 270.18,329.952 271.052,332.356 271.924,334.761 272.795,337.165 273.667,339.57 274.54,321.284 275.411,323.688 276.283,326.093 277.155,328.497 278.027,330.901 278.899,333.306 279.771,335.71 280.643,338.115 281.514,340.52 282.386,322.233 283.258,324.638 284.13,327.042 285.002,329.447 285.874,331.851 286.746,334.256 287.618,336.66 288.489,339.064 289.361,341.469 290.233,323.183 291.105,325.587 291.977,327.992 292.849,330.396 293.721,332.801 294.592,335.205 295.464,337.61 296.336,340.014 297.208,321.728 298.08,324.133 298.952,326.537 299.824,328.941 300.696,331.346 301.567,333.75 302.439,336.155 303.311,338.56 304.183,340.964 305.055,322.678 305.927,325.083 306.799,327.487 307.67,329.891 308.542,332.296 309.415,334.7 310.286,337.104 311.158,339.509 312.03,321.223 312.902,323.627 313.774,326.032 314.646,328.437 315.518,330.841 316.389,333.246 317.261,335.65 318.133,338.054 319.005,340.459 319.877,322.173 320.749,324.577 321.621,326.981 322.493,329.386 323.364,331.791 324.236,334.195 325.108,336.6 325.98,339.004 326.852,320.718 327.724,323.123 328.596,325.527 329.467,327.931 330.339,330.336 331.211,332.74 332.083,335.145 332.955,337.549 333.827,339.954 334.699,321.667 335.571,324.072 336.442,326.477 337.314,328.881 338.186,331.286 339.058,333.69 339.93,336.094 340.802,338.499 341.674,340.903 342.545,322.617 343.417,325.021 344.29,327.426 345.161,329.831 346.033,332.235 346.905,334.64 347.777,337.044 348.649,339.449 349.521,321.163 350.393,323.567 351.264,325.971 352.136,328.376 353.008,330.78 353.88,333.185 354.752,335.589 355.624,337.994 356.496,340.398 357.368,322.112 358.239,324.517 359.111,326.921 359.983,329.326 360.855,331.73 361.727,334.134 362.599,336.539 363.471,338.943 364.342,320.657 365.214,323.062 366.086,325.466 366.958,327.871 367.83,330.275 368.702,332.68 369.574,335.084 370.446,337.489 371.317,339.893 372.189,321.607 373.061,324.011 373.933,326.416 374.805,328.82 375.677,331.225 376.549,333.629 377.42,336.034 378.292,338.438 379.165,320.152 380.036,322.557 380.908,324.961 381.78,327.366 382.652,329.77 383.524,332.174 384.396,334.579 385.268,336.983 386.139,339.388 387.011,321.102 387.883,323.506 388.755,325.911 389.627,328.315 390.499,330.72 391.371,333.124 392.243,335.529 393.114,337.933 393.986,340.337 394.858,322.051 395.73,324.456 396.602,326.86 397.474,329.265 398.346,331.669 399.217,334.074 400.089,336.478 400.961,338.883 401.833,320.597 402.705,323.001 403.577,325.406 404.449,327.81 405.321,330.214 406.192,332.619 407.064,335.023 407.936,337.428 408.808,339.833 409.68,321.546 410.552,323.951 411.424,326.355 412.295,328.76 413.167,331.164 414.04,333.569 414.911,335.973 415.783,338.377 416.655,320.091 417.527,322.496 418.399,324.9 419.271,327.305 420.143,329.709 421.014,332.114 421.886,334.519 422.758,336.923 423.63,339.327 424.502,321.041 425.374,323.446 426.246,325.85 427.118,328.254 427.989,330.659 428.861,333.063 429.733,335.468 430.605,337.873 431.477,319.586 432.349,321.991 433.221,324.396 434.092,326.8 434.964,329.204 435.836,331.609 436.708,334.013 437.58,336.417 438.452,338.822 439.324,320.536 440.196,322.94 441.067,325.345 441.939,327.75 442.811,330.154 443.683,332.559 444.555,334.963 445.427,337.367 446.299,339.772 447.17,321.486 448.042,323.89 448.915,326.294 449.786,328.699 450.658,331.104 451.53,333.508 452.402,335.913 453.274,338.317 454.146,320.031 455.018,322.436 455.889,324.84 456.761,327.244 457.633,329.649 458.505,332.053 459.377,334.458 460.249,336.862 461.121,339.267 461.993,320.98 462.864,323.385 463.736,325.79 464.608,328.194 465.48,330.599 466.352,333.003 467.224,335.407 468.096,337.812 468.967,319.526 469.839,321.93 470.711,324.334 471.583,326.739 472.455,329.144 473.327,331.548 474.199,333.953 475.071,336.357 475.942,338.762 476.814,320.476 477.686,322.88 478.558,325.284 479.43,327.689 480.302,330.093 481.174,332.498 482.045,334.902 482.917,337.307 483.79,339.711 484.661,321.425 485.533,323.83 486.405,326.234 487.277,328.639 488.149,331.043 489.021,333.447 489.893,335.852 490.764,338.256 491.636,319.97 492.508,322.375 493.38,324.779 494.252,327.184 495.124,329.588 495.996,331.993 496.868,334.397 497.739,336.802 498.611,339.206 499.483,320.92 500.355,323.324 501.227,325.729 502.099,328.133 502.971,330.538 503.842,332.942 504.714,335.347 505.586,337.751 506.458,319.465 507.33,321.87 508.202,324.274 509.074,326.679 509.946,329.083 510.817,331.487 511.689,333.892 512.561,336.296 513.433,338.701 514.305,320.415 515.177,322.819 516.049,325.224 516.92,327.628 517.792,330.033 518.665,332.437 519.536,334.842 520.408,337.246 521.28,329.305"/>
</g>
</g>
</svg>
